<svg width="73" height="64" viewBox="0 0 73 64" fill="none" xmlns="http://www.w3.org/2000/svg">
<path d="M15.4267 0.208469C24.3909 0.208469 32.5212 6.87948 32.5212 21.0554C32.5212 48.9902 14.8013 62.1238 0 64V52.9511C12.0912 50.658 18.9707 39.4007 18.9707 28.1433C18.1368 28.9772 16.6775 29.3941 13.9674 29.3941C6.25407 29.3941 0 23.9739 0 14.8013C0 6.87948 6.46254 0 15.4267 0V0.208469ZM55.4528 0.208469C64.4169 0.208469 72.5472 6.87948 72.5472 21.0554C72.5472 48.9902 54.8274 62.1238 40.0261 64V52.9511C52.1173 50.658 58.9967 39.4007 58.9967 28.1433C58.1629 28.9772 56.7036 29.3941 53.9935 29.3941C46.2801 29.3941 40.0261 23.9739 40.0261 14.8013C40.0261 6.87948 46.4886 0 55.4528 0V0.208469Z" fill="white"/>
</svg>
