<svg width="362" height="40" viewBox="0 0 362 40" fill="none" xmlns="http://www.w3.org/2000/svg">
<g clip-path="url(#clip0_680_7074)">
<path d="M12.5005 8.72751H6.94842V0.306305C6.94842 0.182753 6.85067 0.0844727 6.72779 0.0844727H0.220629C0.0977471 0.0844727 0 0.182753 0 0.306305V32.8511C0 32.9718 0.0977471 33.0701 0.220629 33.0701H10.7885C13.9722 33.0701 16.1925 32.7387 17.7788 32.0283C22.0294 30.088 24.096 26.3281 24.096 20.5295C24.096 17.0448 22.9538 13.7763 21.1162 12.0044C18.9462 9.91248 17.4744 8.72751 12.5005 8.72751ZM15.6563 25.7693C14.4749 27.0553 12.668 27.2294 11.0594 27.2294H6.79202V14.5738H11.0594C15.1703 14.5738 17.0052 16.5618 17.0052 21.0209C17.0052 23.0455 16.7762 24.545 15.6563 25.7693Z" fill="#092D4E"/>
<path d="M42.5933 8.72754H35.9605C31.1038 8.72754 27.166 12.6868 27.166 17.5699L27.2051 24.2586C27.2051 29.1417 31.1429 33.101 35.9996 33.101H48.6424L49.7037 27.6029H37.3987C35.4466 27.6029 33.8631 25.8114 33.8631 23.8486V23.5032H51.4268V18.9206L51.3877 17.5699C51.3877 12.6868 47.4499 8.72754 42.5933 8.72754ZM44.7689 18.2551H33.8631V17.4295C33.8631 15.4667 35.4466 14.2733 37.3987 14.2733H41.2332C43.1854 14.2733 44.7689 15.332 44.7689 17.2948V18.2551Z" fill="#092D4E"/>
<path d="M110.225 8.97464C109.371 8.81178 107.648 8.72754 105.103 8.72754H94.8622C94.7589 8.72754 94.6695 8.80055 94.6472 8.90164L93.5775 13.9504C93.5468 14.088 93.6529 14.2172 93.7926 14.2172H105.88C108.106 14.2172 109.742 15.0792 109.742 17.9939V18.0501C109.742 18.1709 109.644 18.2719 109.521 18.2719H101.973C99.487 18.2719 97.6606 18.4545 96.5435 18.8167C95.2141 19.2491 94.1305 20.1168 93.3178 21.3944C92.5079 22.6693 92.1113 24.0564 92.1113 25.7075C92.1113 28.3555 93.0776 30.4615 94.9041 31.8009C95.7978 32.4636 97.0713 32.8848 98.6911 33.0505C99.2161 33.0842 100.551 33.0982 102.769 33.0982H116.489C116.61 33.0982 116.707 32.9999 116.707 32.8792V19.4541C116.707 14.63 116.177 13.1558 114.677 11.4148C113.591 10.1568 112.049 9.31441 110.225 8.97464ZM109.759 27.5384C109.759 27.6619 109.661 27.7602 109.541 27.7602H101.392C100.087 27.7602 99.0681 27.0357 99.0681 25.6093C99.0681 24.2024 99.8278 23.5173 101.392 23.5173H109.541C109.661 23.5173 109.759 23.6156 109.759 23.7391V27.5384Z" fill="#092D4E"/>
<path d="M79.5303 8.72754H55.5488C55.4259 8.72754 55.3281 8.82582 55.3281 8.94937V32.8511C55.3281 32.9746 55.4259 33.0729 55.5488 33.0729H62.0559C62.1788 33.0729 62.2765 32.9746 62.2765 32.8511L62.2654 14.4924C62.2654 14.3716 62.3631 14.2733 62.486 14.2733H68.7725L68.7865 32.8511C68.7865 32.9746 68.8842 33.0729 69.0071 33.0729H75.6707C75.7908 33.0729 75.8885 32.9746 75.8885 32.8511L75.8746 14.4924C75.8746 14.3716 75.9723 14.2733 76.0952 14.2733H80.2955C81.7813 14.2733 82.7364 15.4274 82.7364 17.0785V32.8511C82.7364 32.9746 82.8342 33.0729 82.957 33.0729H89.3106C89.4307 33.0729 89.5312 32.9746 89.5312 32.8511V17.1403C89.5312 13.8016 89.157 12.8806 87.4981 11.1677C86.4173 10.0557 84.1607 8.72754 79.5303 8.72754Z" fill="#092D4E"/>
<path d="M124.673 33.101C126.96 33.101 128.815 31.2366 128.815 28.9367C128.815 26.6369 126.96 24.7725 124.673 24.7725C122.386 24.7725 120.531 26.6369 120.531 28.9367C120.531 31.2366 122.386 33.101 124.673 33.101Z" fill="#092D4E"/>
<path d="M152.736 16.6319C149.913 16.6319 147.986 18.2016 147.288 19.7067V8.94922H144.629V33.1009H147.221V30.4613C148.151 32.1995 150.011 33.567 152.669 33.567C157.286 33.567 159.978 29.8576 159.978 25.0812C159.978 20.4059 157.453 16.6319 152.736 16.6319ZM152.27 31.1633C149.215 31.1633 147.221 28.6586 147.221 25.084C147.221 21.5431 149.181 19.0384 152.27 19.0384C155.359 19.0384 157.319 21.5459 157.319 25.084C157.319 28.6586 155.325 31.1633 152.27 31.1633Z" fill="#092D4E"/>
<path d="M176.926 17.1011H174.267V26.755C174.267 29.2934 172.87 31.1636 170.215 31.1636C167.391 31.1636 166.293 29.0267 166.293 26.7213V17.1011H163.635V27.1537C163.635 30.7283 165.76 33.5672 169.614 33.5672C171.739 33.5672 173.636 32.5647 174.398 30.9277V31.0625C174.398 31.8627 174.465 32.7332 174.563 33.1011H177.121C177.021 32.4665 176.923 31.3292 176.923 30.0937V17.1011H176.926Z" fill="#092D4E"/>
<path d="M184.303 17.1011H181.645V33.1011H184.303V17.1011Z" fill="#092D4E"/>
<path d="M182.974 8.78076C181.88 8.78076 180.98 9.68213 180.98 10.7857C180.98 11.8892 181.877 12.7906 182.974 12.7906C184.069 12.7906 184.969 11.8892 184.969 10.7857C184.969 9.68494 184.072 8.78076 182.974 8.78076Z" fill="#092D4E"/>
<path d="M191.678 8.94922H189.02V33.1008H191.678V8.94922Z" fill="#092D4E"/>
<path d="M210.684 8.94922H208.026V19.673C207.495 18.3364 205.931 16.6347 202.876 16.6347C198.458 16.6347 195.5 20.4424 195.5 25.0868C195.5 29.8295 198.29 33.5726 202.876 33.5726C205.599 33.5726 207.394 31.9355 208.093 30.3659V30.8011C208.093 31.8372 208.16 32.7386 208.257 33.1065H210.849C210.749 32.7386 210.684 31.7025 210.684 30.0991V8.94922ZM203.11 31.1633C200.086 31.1633 198.159 28.6586 198.159 25.084C198.159 21.5431 200.086 19.0384 203.11 19.0384C206.166 19.0384 208.093 21.5459 208.093 25.084C208.093 28.6586 206.099 31.1633 203.11 31.1633Z" fill="#092D4E"/>
<path d="M218.096 17.1011H215.438V33.1011H218.096V17.1011Z" fill="#092D4E"/>
<path d="M216.767 8.78076C215.673 8.78076 214.773 9.68213 214.773 10.7857C214.773 11.8892 215.67 12.7906 216.767 12.7906C217.862 12.7906 218.762 11.8892 218.762 10.7857C218.759 9.68494 217.862 8.78076 216.767 8.78076Z" fill="#092D4E"/>
<path d="M230.357 16.6318C228.232 16.6318 226.403 17.6343 225.375 19.5044V17.1008H222.783V33.1008H225.442V23.6799C225.442 21.1415 226.872 19.0355 229.43 19.0355C232.321 19.0355 233.385 20.9393 233.385 23.2447V33.098H236.043V22.8459C236.038 19.3724 234.178 16.6318 230.357 16.6318Z" fill="#092D4E"/>
<path d="M251.853 19.3724C251.054 17.8028 249.362 16.6318 246.837 16.6318C242.519 16.6318 239.595 20.0716 239.595 24.5476C239.595 28.9899 242.553 32.3988 246.773 32.3988C249.398 32.3988 251.06 30.9948 251.822 29.4251V31.9972C251.822 35.3051 250.459 37.5093 246.739 37.5093C244.114 37.5093 242.385 35.7375 242.123 33.3675L239.564 34.0021C239.93 37.3774 242.885 39.9158 246.742 39.9158C252.721 39.9158 254.483 35.8077 254.483 31.8989V17.1008H251.858V19.3724H251.853ZM247.102 29.9923C244.178 29.9923 242.251 27.8554 242.251 24.5139C242.251 21.1724 244.178 19.0355 247.102 19.0355C250.026 19.0355 251.953 21.1724 251.953 24.5139C251.953 27.8554 250.026 29.9923 247.102 29.9923Z" fill="#092D4E"/>
<path d="M274.117 29.9926L269.333 17.1011H266.342L272.754 33.1011H275.446L281.791 17.1011H278.934L274.117 29.9926Z" fill="#092D4E"/>
<path d="M287.477 17.1011H284.818V33.1011H287.477V17.1011Z" fill="#092D4E"/>
<path d="M286.148 8.78076C285.051 8.78076 284.154 9.68213 284.154 10.7857C284.154 11.8892 285.051 12.7906 286.148 12.7906C287.243 12.7906 288.142 11.8892 288.142 10.7857C288.14 9.68494 287.243 8.78076 286.148 8.78076Z" fill="#092D4E"/>
<path d="M298.703 24.0816L296.111 23.4807C294.718 23.1465 294.02 22.4136 294.02 21.3101C294.02 19.9735 295.282 18.9064 296.977 18.9064C299.468 18.9064 300.365 20.7092 300.532 21.779L302.892 20.9114C302.526 19.2743 301.099 16.6348 296.98 16.6348C293.955 16.6348 291.431 18.8054 291.431 21.4786C291.431 23.7839 292.958 25.3536 295.385 25.9208L297.977 26.5217C299.438 26.8896 300.401 27.659 300.401 28.8608C300.401 30.2311 299.203 31.2982 297.312 31.2982C294.919 31.2982 293.559 29.9278 293.324 28.0577L290.934 28.8917C291.199 30.8966 293.092 33.5698 297.279 33.5698C301.066 33.5698 303.026 31.0314 303.026 28.726C303.024 26.3196 301.496 24.7162 298.703 24.0816Z" fill="#092D4E"/>
<path d="M308.109 8.78076C307.012 8.78076 306.115 9.68213 306.115 10.7857C306.115 11.8892 307.012 12.7906 308.109 12.7906C309.204 12.7906 310.103 11.8892 310.103 10.7857C310.103 9.68494 309.204 8.78076 308.109 8.78076Z" fill="#092D4E"/>
<path d="M309.44 17.1011H306.781V33.1011H309.44V17.1011Z" fill="#092D4E"/>
<path d="M321.102 16.6318C316.486 16.6318 313.129 20.1727 313.129 25.0839C313.129 30.0288 316.486 33.5697 321.102 33.5697C325.719 33.5697 329.076 30.0288 329.076 25.0839C329.076 20.1727 325.719 16.6318 321.102 16.6318ZM321.102 31.1633C318.279 31.1633 315.788 28.9927 315.788 25.0839C315.788 21.2089 318.279 19.0383 321.102 19.0383C323.926 19.0383 326.417 21.2117 326.417 25.0839C326.417 28.9927 323.926 31.1633 321.102 31.1633Z" fill="#092D4E"/>
<path d="M340.406 16.6318C338.281 16.6318 336.451 17.6343 335.424 19.5044V17.1008H332.832V33.1008H335.491V23.6799C335.491 21.1415 336.921 19.0355 339.476 19.0355C342.367 19.0355 343.431 20.9393 343.431 23.2447V33.098H346.089V22.8459C346.087 19.3724 344.227 16.6318 340.406 16.6318Z" fill="#092D4E"/>
<path d="M357.218 24.0816L354.627 23.4807C353.23 23.1465 352.532 22.4136 352.532 21.3101C352.532 19.9735 353.795 18.9064 355.49 18.9064C357.981 18.9064 358.88 20.7092 359.045 21.779L361.402 20.9114C361.036 19.2743 359.609 16.6348 355.49 16.6348C352.465 16.6348 349.94 18.8054 349.94 21.4786C349.94 23.7839 351.468 25.3536 353.895 25.9208L356.487 26.5217C357.947 26.8896 358.911 27.659 358.911 28.8608C358.911 30.2311 357.713 31.2982 355.822 31.2982C353.429 31.2982 352.069 29.9278 351.837 28.0577L349.443 28.8917C349.709 30.8966 351.602 33.5698 355.789 33.5698C359.576 33.5698 361.536 31.0314 361.536 28.726C361.539 26.3196 360.011 24.7162 357.218 24.0816Z" fill="#092D4E"/>
</g>
<defs>
<clipPath id="clip0_680_7074">
<rect width="361.538" height="40" fill="white"/>
</clipPath>
</defs>
</svg>
