<svg width="779" height="799" viewBox="0 0 779 799" fill="none" xmlns="http://www.w3.org/2000/svg">
<g clip-path="url(#clip0_948_26365)">
<path d="M379.306 1.39331C338.15 2.91335 299.403 7.8354 260.837 19.5072C248.561 23.2168 235.452 28.1388 224.226 33.8571C213.182 39.4849 201.811 46.9765 190.857 54.2329C179.902 61.4712 168.097 69.1257 158.392 77.5583C117.309 113.316 101.448 152.493 96.9219 206.762C95.9079 219.013 95.926 231.626 96.1252 245.795C96.3244 259.982 96.3063 274.313 95.3466 288.066C94.3508 302.163 92.0332 315.861 87.5791 327.624C74.1443 363.127 49.6467 392.913 27.1769 423.187C-37.3716 510.137 31.6672 615.418 97.6642 680.998C172.225 755.082 274.073 797.625 379.324 797.607" stroke="url(#paint0_linear_948_26365)" stroke-width="2" stroke-miterlimit="10"/>
<path d="M379.306 1.39331C340.251 2.89526 302.681 6.93061 265.491 19.471C253.523 23.5063 241.555 27.8493 230.329 33.8028C219.302 39.6477 208.801 46.9041 198.263 54.1967C187.743 61.4712 176.517 69.3248 166.975 77.486C126.508 112.103 108.42 151.769 103.314 205.839C102.173 217.981 102.282 230.685 102.662 244.799C103.042 258.95 103.405 273.119 102.988 287.017C102.572 301.149 101.051 314.884 97.3028 326.755C86.0408 362.386 63.2451 392.732 41.7893 423.006C-20.1519 510.409 44.2155 613.645 108.836 680.835C179.342 754.159 277.224 797.588 379.325 797.57" stroke="url(#paint1_linear_948_26365)" stroke-width="2" stroke-miterlimit="10"/>
<path d="M379.306 1.39348C342.26 1.35729 305.07 7.20222 270.143 19.453C258.664 23.4884 247.185 27.8133 236.43 33.7668C225.856 39.6117 215.789 46.85 205.685 54.1607C195.6 61.4714 185.37 69.3973 175.828 77.5042C135.361 111.904 115.625 151.299 109.433 204.916C108.039 216.968 108.057 229.69 108.401 243.732C108.745 257.792 109.252 271.907 109.143 285.786C109.035 299.901 108.075 313.636 104.961 325.597C95.6905 361.228 74.9589 392.117 54.8792 422.627C-3.04248 510.644 56.5811 612.234 119.735 680.998C186.149 753.326 280.645 797.607 379.306 797.607" stroke="url(#paint2_linear_948_26365)" stroke-width="2" stroke-miterlimit="10"/>
<path d="M379.306 1.39348C343.781 1.35729 308.13 7.2384 274.815 19.4168C263.825 23.4341 252.834 27.7771 242.55 33.6944C232.428 39.5212 222.814 46.7233 213.127 54.0521C203.459 61.3809 193.717 69.4516 184.61 77.5404C144.559 113.117 123.23 151.027 115.535 203.957C113.797 215.901 113.543 228.622 113.67 242.574C113.815 256.526 114.231 270.55 114.213 284.357C114.213 298.417 113.561 312.098 111.027 324.149C103.567 359.635 85.0623 391.086 66.7388 422.011C14.2491 510.572 69.3461 611.148 130.762 680.98C193.428 752.204 283.651 797.589 379.288 797.589" stroke="url(#paint3_linear_948_26365)" stroke-width="2" stroke-miterlimit="10"/>
<path d="M379.306 1.39335C345.303 1.37526 311.191 7.27447 279.469 19.3805C268.967 23.3978 258.448 27.7408 248.652 33.6219C239.001 39.4306 229.822 46.5965 220.587 53.9253C211.353 61.2541 202.101 69.361 193.32 77.5041C154.428 113.641 131.36 150.991 121.836 203.052C119.664 214.887 119.012 227.572 118.795 241.379C118.577 255.204 118.758 269.12 118.65 282.819C118.541 296.788 118.034 310.415 116.006 322.539C110.104 357.807 94.1883 390.181 77.7117 421.269C31.378 508.635 81.2605 609.628 141.952 680.817C201.413 750.558 286.295 797.588 379.306 797.57" stroke="url(#paint4_linear_948_26365)" stroke-width="2" stroke-miterlimit="10"/>
<path d="M379.306 1.39331C344.416 3.54671 315.844 7.8535 284.122 19.3624C274.309 22.9273 264.06 27.7045 254.754 33.5676C245.556 39.3582 236.847 46.4698 228.029 53.7986C219.23 61.1093 210.376 69.2162 202.029 77.4136C164.802 113.985 140.033 151.299 128.518 202.22C125.874 213.946 124.697 226.577 124.027 240.239C123.357 253.901 123.14 267.69 122.814 281.28C122.47 295.124 121.927 308.677 120.316 320.856C115.68 355.889 102.463 388.787 87.996 420.455C28.1189 551.54 157.306 730.109 281.949 777.918C315.935 790.947 351.712 797.154 379.306 797.607" stroke="url(#paint5_linear_948_26365)" stroke-width="2" stroke-miterlimit="10"/>
<path d="M379.307 1.39331C345.883 3.5648 318.977 7.8535 288.776 19.3262C279.452 22.873 269.692 27.6503 260.838 33.4771C252.093 39.2315 243.837 46.307 235.472 53.5996C227.125 60.8741 219.013 69.0352 210.757 77.2145C174.508 113.062 148.852 153.723 135.815 201.46C132.647 213.077 130.909 225.636 129.695 239.135C128.482 252.635 127.776 266.261 127.106 279.724C126.4 293.441 125.712 306.886 124.427 319.1C120.769 353.881 109.761 387.086 97.9191 419.532C74.3267 484.224 87.9426 557.186 122.706 621.915C175.812 720.772 278.908 799.959 379.325 797.589" stroke="url(#paint6_linear_948_26365)" stroke-width="2" stroke-miterlimit="10"/>
<path d="M379.306 1.39331C347.349 3.5829 322.109 7.85349 293.429 19.3081C284.593 22.8368 275.304 27.6141 266.939 33.4047C258.647 39.1411 250.861 46.1441 242.949 53.4005C235.036 60.6569 227.359 68.7638 219.501 76.9612C185.118 112.791 158.682 154.954 143.926 200.845C140.214 212.372 137.878 224.84 136.068 238.158C134.257 251.495 133.008 264.958 131.903 278.276C130.781 291.848 129.839 305.185 128.771 317.418C125.765 351.962 117.056 385.602 107.714 418.627C63.1 576.35 209.615 797.57 379.288 797.607" stroke="url(#paint7_linear_948_26365)" stroke-width="2" stroke-miterlimit="10"/>
<path d="M379.305 1.39348C352.979 0.778224 321.583 8.03462 298.081 19.2721C289.662 23.3074 280.935 27.5599 273.022 33.3144C265.182 39.0327 257.813 45.9814 250.371 53.1835C242.93 60.3856 235.687 68.4564 228.246 76.6356C195.546 112.574 169.419 156.112 153.087 200.374C148.868 211.811 145.917 224.188 143.509 237.344C141.101 250.5 139.272 263.8 137.697 276.956C136.103 290.383 135.035 303.792 133.894 315.825C130.653 349.918 124.606 383.902 117.744 417.741C102.009 495.281 126.833 594.011 178.055 671.136C226.616 744.242 298.932 796.648 379.287 797.607" stroke="url(#paint8_linear_948_26365)" stroke-width="2" stroke-miterlimit="10"/>
<path d="M379.306 1.39344C354.464 0.796276 324.644 8.16125 302.735 19.2539C294.823 23.2712 286.566 27.5237 279.125 33.242C271.719 38.924 264.821 45.8004 257.814 52.9663C250.807 60.1142 244.053 68.1306 237.028 76.2918C205.686 112.7 181.369 156.981 163.517 200.121C158.809 211.485 155.296 223.754 152.291 236.747C149.285 249.722 146.877 262.859 144.849 275.87C142.785 289.134 141.282 302.326 140.232 314.432C137.245 348.524 132.827 382.888 128.264 416.926C108.908 560.914 211.987 794.621 379.306 797.607" stroke="url(#paint9_linear_948_26365)" stroke-width="2" stroke-miterlimit="10"/>
<path d="M379.307 1.39326C355.95 0.814199 327.704 8.28775 307.407 19.2357C299.984 23.2348 292.198 27.5054 285.245 33.1694C278.293 38.8153 271.847 45.6193 265.274 52.749C258.702 59.8606 252.383 67.8047 245.81 75.9116C215.826 112.917 194.588 157.089 175.45 200.103C170.289 211.702 166.27 223.609 162.721 236.421C159.172 249.233 156.221 262.207 153.758 275.073C151.26 288.193 149.322 301.186 148.218 313.328C145.104 347.565 142.044 381.929 139.509 416.257C129.442 552.499 214.939 792.938 379.289 797.625" stroke="url(#paint10_linear_948_26365)" stroke-width="2" stroke-miterlimit="10"/>
<path d="M379.307 1.39335C355.877 1.37526 333.263 7.41924 312.06 19.1996C304.999 23.1264 297.829 27.4512 291.347 33.0609C284.847 38.6887 278.854 45.4203 272.716 52.4777C266.578 59.535 260.693 67.3705 254.555 75.4593C226.092 112.863 206.429 156.854 188.594 199.741C183.706 211.485 179.324 223.591 175.196 236.349C171.068 249.106 167.7 261.864 164.875 274.603C161.996 287.596 159.661 300.57 158.411 312.532C154.808 346.66 153.83 381.042 152.979 415.533C149.865 542.71 218.94 791.345 379.343 797.588" stroke="url(#paint11_linear_948_26365)" stroke-width="2" stroke-miterlimit="10"/>
<path d="M379.306 1.39335C357.506 1.37526 336.449 7.43733 316.713 19.1815C310.14 23.0902 303.459 27.415 297.43 32.9885C291.382 38.5801 285.842 45.2394 280.12 52.2424C274.417 59.2274 268.967 66.9905 263.245 75.025C236.412 112.61 218.306 156.402 201.775 198.927C197.176 210.761 193.048 222.976 189.137 235.842C185.226 248.708 181.586 261.647 178.545 274.404C175.43 287.415 172.678 300.371 171.121 312.17C166.576 346.353 167.319 380.101 167.735 414.899C169.129 532.884 222.235 789.445 379.306 797.607" stroke="url(#paint12_linear_948_26365)" stroke-width="2" stroke-miterlimit="10"/>
<path d="M379.307 1.39331C359.118 1.39331 339.636 7.45539 321.367 19.1633C315.283 23.072 309.073 27.3969 303.533 32.9161C297.938 38.4896 292.85 45.0584 287.581 51.989C282.312 58.9197 277.315 66.5923 272.01 74.5544C246.914 112.176 230.365 155.66 215.102 197.696C210.811 209.549 206.954 221.8 203.279 234.702C199.621 247.604 196.181 260.615 193.32 273.499C190.387 286.637 188.124 299.575 186.277 311.627C180.99 345.882 182.583 380.228 183.38 414.809C186.06 531.382 227.631 785.41 379.325 797.588" stroke="url(#paint13_linear_948_26365)" stroke-width="2" stroke-miterlimit="10"/>
<path d="M379.306 1.39331C360.729 1.39331 342.804 7.47348 326.019 19.1633C320.424 23.0539 314.703 27.3788 309.633 32.8437C304.491 38.381 299.838 44.8955 295.021 51.7538C290.205 58.6121 285.624 66.2123 280.754 74.1021C257.451 111.741 242.495 154.646 228.499 196.158C224.516 207.974 220.949 220.189 217.545 233.073C214.141 245.939 210.936 258.968 208.275 271.889C205.541 285.08 203.44 298.109 201.72 310.215C196.795 344.833 195.13 379.975 196.56 414.845C200.761 516.308 235.398 783.039 379.342 797.588" stroke="url(#paint14_linear_948_26365)" stroke-width="2" stroke-miterlimit="10"/>
<path d="M379.307 1.39331C362.36 1.39331 345.992 7.49158 330.674 19.1452C325.568 23.0358 320.335 27.3607 315.736 32.7714C311.047 38.2906 306.846 44.7145 302.464 51.5186C298.083 58.3226 293.955 65.8142 289.482 73.6316C268.117 111.072 254.411 153.325 241.917 194.348C238.314 206.165 234.983 218.217 231.85 231.028C228.718 243.804 225.767 256.779 223.304 269.681C220.787 282.855 218.85 295.902 217.257 308.098C212.676 343.168 210.992 378.708 212.459 413.958C216.478 509.956 247.15 785.754 379.307 797.607" stroke="url(#paint15_linear_948_26365)" stroke-width="2" stroke-miterlimit="10"/>
<path d="M379.306 1.39331C363.971 1.39331 349.178 7.52777 335.327 19.1452C330.709 23.0177 325.966 27.3607 321.819 32.7352C317.583 38.2363 313.835 44.5879 309.887 51.3195C305.94 58.0511 302.247 65.4704 298.209 73.1973C278.763 110.547 266.451 152.004 255.189 192.43C251.93 204.12 248.96 216.045 246.154 228.694C243.347 241.325 240.686 254.173 238.44 266.985C236.159 280.068 234.403 293.097 232.936 305.366C228.699 340.942 226.961 377.134 228.464 412.637C232.23 501.94 243.239 599.042 275.178 683.983C292.252 729.349 325.531 794.096 379.306 797.588" stroke="url(#paint16_linear_948_26365)" stroke-width="2" stroke-miterlimit="10"/>
<path d="M379.307 1.39331C365.6 1.39331 352.347 7.54587 339.962 19.1452C335.834 23.0177 331.561 27.3607 327.903 32.6809C324.137 38.1458 320.806 44.4431 317.311 51.1204C313.817 57.7978 310.467 65.1266 306.936 72.7811C289.627 110.221 278.836 150.629 268.479 190.385C265.491 201.84 262.866 213.711 260.331 226.197C257.796 238.647 255.388 251.35 253.414 264.035C251.387 276.992 249.866 289.93 248.562 302.271C244.76 338.409 243.239 375.053 244.524 411.081C247.711 500.836 256.456 594.554 285.499 680.78C299.621 722.708 328.519 793.861 379.307 797.607" stroke="url(#paint17_linear_948_26365)" stroke-width="2" stroke-miterlimit="10"/>
<path d="M379.306 1.39331C367.211 1.39331 355.514 7.56396 344.614 19.1452C340.975 22.9996 337.191 27.3607 333.986 32.6447C330.673 38.1096 327.794 44.3164 324.734 50.9395C321.674 57.5625 318.777 64.8008 315.663 72.383C300.363 109.588 290.948 149.254 281.786 188.304C279.142 199.596 276.807 211.304 274.544 223.573C272.298 235.824 270.144 248.328 268.387 260.868C266.595 273.68 265.237 286.51 264.096 298.906C260.692 335.604 259.371 372.718 260.475 409.326C263.191 499.588 270.524 593.215 296.542 680.744C307.931 719.071 333.207 795.308 379.324 797.57" stroke="url(#paint18_linear_948_26365)" stroke-width="2" stroke-miterlimit="10"/>
<path d="M379.306 1.39331C368.84 1.39331 358.719 7.56396 349.267 19.1452C346.117 23.0177 342.822 27.3788 340.088 32.6085C337.227 38.0553 334.783 44.2079 332.157 50.7585C329.532 57.3273 327.069 64.4932 324.371 72.0029C311.118 108.936 303.061 147.86 295.076 186.241C292.758 197.37 290.712 208.879 288.739 220.949C286.765 232.983 284.882 245.288 283.343 257.665C281.786 270.296 280.609 282.999 279.613 295.449C276.607 332.708 275.485 370.33 276.408 407.498C278.653 498.357 284.665 591.93 307.569 680.744C316.495 715.361 338.15 794.82 379.306 797.57" stroke="url(#paint19_linear_948_26365)" stroke-width="2" stroke-miterlimit="10"/>
<path d="M379.305 1.39331C370.451 1.39331 361.887 7.60015 353.92 19.1633C351.259 23.0177 348.452 27.415 346.171 32.6085C343.781 38.0372 341.753 44.1355 339.58 50.65C337.39 57.1644 335.362 64.258 333.098 71.7134C321.891 108.375 315.191 146.576 308.383 184.305C306.41 195.271 304.654 206.599 302.97 218.434C301.286 230.25 299.656 242.338 298.353 254.535C297.013 266.985 296.053 279.561 295.202 292.065C292.613 329.886 291.671 367.977 292.414 405.707C294.188 497.163 299.004 590.754 318.65 680.78C325.621 712.737 342.64 792.142 379.342 797.607" stroke="url(#paint20_linear_948_26365)" stroke-width="2" stroke-miterlimit="10"/>
<path d="M379.306 1.39331C372.064 1.39331 365.075 7.61825 358.557 19.1814C356.384 23.0358 354.066 27.4512 352.238 32.6085C350.318 38.0372 348.725 44.0812 346.969 50.5414C345.213 57.0197 343.619 64.0408 341.772 71.442C332.647 107.833 327.251 145.363 321.602 182.496C319.954 193.299 318.506 204.428 317.094 216.063C315.681 227.663 314.323 239.552 313.237 251.567C312.133 263.836 311.354 276.286 310.648 288.808C308.493 327.171 307.878 365.806 308.294 403.951C309.29 495.679 313.346 589.632 329.623 680.78C335.164 711.778 349.395 791.4 379.288 797.607" stroke="url(#paint21_linear_948_26365)" stroke-width="2" stroke-miterlimit="10"/>
<path d="M379.305 1.39331C373.692 1.39331 368.261 7.63635 363.209 19.1995C361.525 23.0539 359.715 27.4874 358.32 32.6266C356.854 38.0553 355.695 44.045 354.373 50.469C353.051 56.9111 351.893 63.878 350.444 71.2248C343.383 107.362 339.291 144.277 334.782 180.921C333.479 191.58 332.302 202.546 331.179 213.982C330.057 225.383 328.934 237.072 328.083 248.925C327.214 261.031 326.616 273.354 326.073 285.895C324.371 324.71 323.919 363.725 324.208 402.377C324.896 494.756 327.866 588.673 340.667 680.78C344.704 709.86 355.55 791.816 379.287 797.607" stroke="url(#paint22_linear_948_26365)" stroke-width="2" stroke-miterlimit="10"/>
<path d="M379.306 1.39331C375.305 1.39331 371.43 7.65444 367.845 19.2357C366.65 23.1082 365.328 27.5598 364.387 32.6628C363.391 38.0915 362.649 44.045 361.761 50.4328C360.874 56.8568 360.132 63.7694 359.118 71.0801C354.102 107 351.296 143.445 347.928 179.636C346.95 190.15 346.063 200.989 345.212 212.263C344.361 223.501 343.492 235.009 342.858 246.717C342.207 258.679 341.79 270.911 341.41 283.452C340.197 322.647 339.889 361.987 340.052 401.056C340.468 493.996 342.478 587.877 351.712 680.762C354.827 712.068 362.63 790.278 379.306 797.588" stroke="url(#paint23_linear_948_26365)" stroke-width="2" stroke-miterlimit="10"/>
<path d="M379.306 1.39331C376.934 1.39331 374.617 7.67254 372.498 19.2719C371.792 23.1444 370.959 27.6141 370.47 32.7171C369.945 38.1458 369.619 44.0631 369.167 50.4509C368.714 56.8568 368.388 63.7513 367.791 71.0258C364.821 106.783 363.264 142.902 361.001 178.732C360.349 189.137 359.733 199.886 359.136 211.015C358.538 222.107 357.941 233.489 357.506 245.107C357.072 256.96 356.836 269.138 356.619 281.642C355.895 321.127 355.75 360.685 355.84 400.097C356.058 493.489 357.198 587.334 362.757 680.78C364.767 714.511 371.484 796.105 379.306 797.607" stroke="url(#paint24_linear_948_26365)" stroke-width="2" stroke-miterlimit="10"/>
<path d="M379.305 1.39331C378.545 1.39331 377.803 7.69063 377.133 19.3081C376.915 23.1987 376.589 27.6864 376.535 32.7894C376.481 38.2182 376.571 44.1355 376.535 50.4871C376.517 56.893 376.608 63.7513 376.408 71.0439C375.485 106.711 375.123 142.631 373.946 178.243C373.602 188.576 373.258 199.288 372.914 210.309C372.588 221.293 372.208 232.603 371.972 244.148C371.737 255.964 371.683 268.107 371.61 280.556C371.411 320.204 371.447 359.906 371.483 399.554C371.592 527.419 370.488 742.396 379.287 797.588" stroke="url(#paint25_linear_948_26365)" stroke-width="2" stroke-miterlimit="10"/>
<path d="M379.307 1.39331C380.176 1.39331 380.991 7.69063 381.787 19.3443C382.059 23.2349 382.222 27.7407 382.62 32.8256C383.037 38.2544 383.525 44.1355 383.942 50.4871C384.358 56.8749 384.865 63.7332 385.082 71.0077C386.169 106.674 387.002 142.558 386.875 178.135C386.839 188.431 386.73 199.162 386.658 210.164C386.567 221.13 386.422 232.404 386.386 243.967C386.35 255.765 386.459 267.926 386.567 280.357C386.893 320.06 387.147 359.834 387.147 399.482C387.201 526.966 388.016 655.682 380.393 797.136" stroke="url(#paint26_linear_948_26365)" stroke-width="2" stroke-miterlimit="10"/>
<path d="M379.307 1.39331C381.787 1.39331 384.177 7.69063 386.422 19.3443C387.183 23.2349 387.853 27.7588 388.686 32.8256C389.573 38.2363 390.496 44.1174 391.329 50.4509C392.162 56.8387 393.104 63.6608 393.737 70.9534C396.852 106.62 398.861 142.504 399.767 178.098C400.02 188.395 400.183 199.144 400.346 210.146C400.509 221.112 400.581 232.386 400.744 243.949C400.907 255.765 401.197 267.944 401.45 280.339C402.265 319.987 402.736 359.888 402.754 399.5C402.754 493.019 401.45 587.153 395.874 680.762C393.9 714.058 390.044 784.578 379.325 797.588" stroke="url(#paint27_linear_948_26365)" stroke-width="2" stroke-miterlimit="10"/>
<path d="M379.306 1.39331C383.416 1.39331 387.363 7.69063 391.075 19.3443C392.324 23.2349 393.501 27.7588 394.768 32.8256C396.126 38.2182 397.466 44.0812 398.716 50.3966C399.983 56.7663 401.323 63.5703 402.373 70.8629C407.497 106.457 410.684 142.323 412.639 178.008C413.2 188.304 413.617 199.071 414.015 210.074C414.414 221.04 414.721 232.331 415.084 243.895C415.464 255.711 415.916 267.889 416.315 280.285C417.618 319.933 418.325 359.906 418.325 399.482C418.325 492.874 416.134 587.352 406.863 680.744C403.785 711.688 396.615 787.871 379.27 797.57" stroke="url(#paint28_linear_948_26365)" stroke-width="2" stroke-miterlimit="10"/>
<path d="M379.307 1.39331C385.029 1.39331 390.551 7.67254 395.729 19.3443C397.468 23.2349 399.133 27.7407 400.854 32.8256C402.682 38.2001 404.439 44.045 406.122 50.3604C407.824 56.712 409.581 63.516 411.047 70.7905C418.181 106.24 422.563 142.178 425.55 177.954C426.419 188.232 427.071 199.017 427.723 210.037C428.375 221.003 428.9 232.313 429.461 243.876C430.041 255.693 430.674 267.871 431.236 280.267C433.01 319.933 433.952 359.943 433.952 399.482C433.952 492.765 430.837 587.696 417.91 680.744C413.854 709.915 404.909 787.527 379.289 797.57" stroke="url(#paint29_linear_948_26365)" stroke-width="2" stroke-miterlimit="10"/>
<path d="M379.307 1.39331C386.658 1.39331 393.737 7.67254 400.382 19.3443C402.609 23.2349 404.764 27.7407 406.937 32.8256C409.218 38.182 411.409 44.0088 413.527 50.3061C415.664 56.6577 417.837 63.4437 419.72 70.7181C428.809 105.987 434.422 142.015 438.46 177.899C439.618 188.178 440.542 198.981 441.447 210.001C442.334 220.985 443.095 232.277 443.873 243.858C444.652 255.675 445.467 267.853 446.173 280.249C448.436 319.915 449.613 359.997 449.613 399.5C449.613 492.693 445.521 588.148 428.99 680.762C423.431 711.923 409.58 791.526 379.325 797.588" stroke="url(#paint30_linear_948_26365)" stroke-width="2" stroke-miterlimit="10"/>
<path d="M379.307 1.39331C388.269 1.39331 396.906 7.67254 405.036 19.3443C407.751 23.2349 410.395 27.7407 413.02 32.8256C415.772 38.1458 418.38 43.9907 420.933 50.2699C423.504 56.6035 426.093 63.3894 428.374 70.6458C439.419 105.679 446.245 141.834 451.351 177.845C452.8 188.105 453.995 198.945 455.135 209.965C456.276 220.949 457.254 232.259 458.231 243.822C459.227 255.639 460.205 267.817 461.074 280.231C463.826 319.897 465.22 360.051 465.22 399.5C465.202 492.621 460.115 588.655 440.017 680.762C433.01 712.864 416.515 789.862 379.307 797.588" stroke="url(#paint31_linear_948_26365)" stroke-width="2" stroke-miterlimit="10"/>
<path d="M379.307 1.39331C389.881 1.39331 400.093 7.67254 409.689 19.3443C412.894 23.2349 416.044 27.7407 419.122 32.8256C422.327 38.1277 425.369 43.9545 428.356 50.2157C431.362 56.5492 434.368 63.317 437.065 70.5734C450.011 105.353 458.123 141.617 464.279 177.773C466.035 188.015 467.466 198.872 468.86 209.911C470.254 220.895 471.467 232.205 472.626 243.786C473.821 255.602 474.98 267.781 475.994 280.195C479.235 319.879 480.864 360.069 480.846 399.5C480.81 492.603 474.636 589.252 451.043 680.762C442.153 715.253 422.218 791.617 379.307 797.588" stroke="url(#paint32_linear_948_26365)" stroke-width="2" stroke-miterlimit="10"/>
<path d="M379.307 1.39331C391.511 1.39331 403.28 7.67254 414.343 19.3443C418.036 23.2349 421.658 27.7226 425.206 32.8256C428.882 38.1096 432.34 43.9183 435.744 50.1614C439.184 56.4768 442.606 63.2265 445.721 70.4829C460.55 104.992 469.929 141.346 477.171 177.7C479.217 187.924 480.919 198.818 482.549 209.856C484.178 220.841 485.627 232.15 486.985 243.75C488.379 255.584 489.719 267.745 490.896 280.158C494.625 319.842 496.472 360.087 496.454 399.5C496.418 492.621 489.085 589.903 462.07 680.762C450.7 719.035 426.094 794.168 379.289 797.588" stroke="url(#paint33_linear_948_26365)" stroke-width="2" stroke-miterlimit="10"/>
<path d="M379.307 1.39331C393.122 1.39331 406.466 7.67254 418.995 19.3443C423.178 23.2349 427.288 27.7226 431.289 32.8256C435.418 38.0734 439.329 43.8821 443.149 50.1252C447.024 56.4225 450.844 63.1722 454.375 70.4105C471.032 104.63 481.733 141.093 490.08 177.646C492.416 187.87 494.371 198.764 496.254 209.82C498.137 220.822 499.803 232.132 501.378 243.732C502.99 255.566 504.493 267.727 505.814 280.14C510.033 319.824 512.097 360.105 512.097 399.5C512.097 492.657 503.642 590.899 473.205 680.998C459.01 723.016 432.068 793.843 379.325 797.607" stroke="url(#paint34_linear_948_26365)" stroke-width="2" stroke-miterlimit="10"/>
<path d="M379.307 1.39331C394.751 1.39331 409.634 7.69063 423.631 19.3624C428.302 23.253 432.901 27.7226 437.355 32.8437C441.936 38.0734 446.281 43.864 450.536 50.089C454.846 56.3863 459.082 63.1179 463.03 70.3562C481.498 104.25 493.502 140.821 502.972 177.61C505.597 187.816 507.824 198.746 509.961 209.784C512.079 220.786 513.98 232.114 515.755 243.695C517.565 255.53 519.249 267.69 520.734 280.104C525.442 319.788 527.723 360.124 527.723 399.5C527.705 492.747 517.964 591.659 484.25 680.998C467.466 725.477 436.051 795.489 379.325 797.607" stroke="url(#paint35_linear_948_26365)" stroke-width="2" stroke-miterlimit="10"/>
<path d="M379.307 1.39331C396.363 1.39331 412.821 7.69063 428.284 19.3624C433.444 23.253 438.514 27.7226 443.439 32.8256C448.454 38.0372 453.252 43.8279 457.942 50.0347C462.686 56.3139 467.339 63.0456 471.684 70.2658C491.927 103.851 505.271 140.513 515.863 177.519C518.778 187.707 521.259 198.655 523.649 209.712C526.021 220.714 528.139 232.042 530.113 243.641C532.123 255.476 533.988 267.654 535.617 280.05C540.814 319.716 543.33 360.105 543.312 399.464C543.294 492.874 532.177 592.401 495.277 680.961C475.378 728.716 439.655 795.146 379.307 797.57" stroke="url(#paint36_linear_948_26365)" stroke-width="2" stroke-miterlimit="10"/>
<path d="M379.307 1.39331C397.992 1.39331 416.008 7.69063 432.937 19.3624C438.586 23.253 444.145 27.7226 449.522 32.8256C454.99 38.0191 460.223 43.7917 465.347 49.9804C470.526 56.2415 475.595 62.9732 480.357 70.1934C502.32 103.453 517.04 140.188 528.773 177.465C531.978 187.653 534.73 198.619 537.355 209.675C539.963 220.678 542.317 232.024 544.489 243.623C546.698 255.458 548.744 267.636 550.537 280.05C556.222 319.716 557.996 360.16 558.956 399.5C561.473 503.786 524.265 787.328 379.325 797.607" stroke="url(#paint37_linear_948_26365)" stroke-width="2" stroke-miterlimit="10"/>
<path d="M379.307 1.39331C399.604 1.39331 419.195 7.69063 437.591 19.3624C443.729 23.253 449.758 27.7226 455.607 32.8256C461.527 38.001 467.195 43.7555 472.735 49.9442C478.348 56.2054 483.834 62.9189 489.012 70.121C512.677 103.055 528.774 139.862 541.665 177.411C545.16 187.581 548.183 198.583 551.044 209.639C553.905 220.641 556.476 231.987 558.848 243.605C561.274 255.44 563.483 267.618 565.421 280.032C571.595 319.698 574.546 360.16 574.546 399.518C574.546 512.128 537.609 783.944 379.289 797.625" stroke="url(#paint38_linear_948_26365)" stroke-width="2" stroke-miterlimit="10"/>
<path d="M379.307 1.39331C401.233 1.39331 422.381 7.69063 442.244 19.3624C448.871 23.253 455.371 27.7226 461.708 32.8256C468.081 37.9648 474.201 43.7193 480.158 49.8899C486.187 56.1149 492.108 62.8465 497.685 70.0305C522.997 102.621 540.506 139.518 554.574 177.338C558.359 187.49 561.636 198.51 564.768 209.585C567.864 220.605 570.689 231.969 573.26 243.551C575.885 255.367 578.275 267.564 580.376 279.977C587.039 319.625 590.207 360.142 590.207 399.482C590.207 520.76 548.237 782.587 379.325 797.588" stroke="url(#paint39_linear_948_26365)" stroke-width="2" stroke-miterlimit="10"/>
<path d="M379.307 1.39331C402.845 1.39331 425.55 7.69063 446.897 19.3624C454.013 23.253 461.002 27.7226 467.791 32.8256C474.599 37.9648 481.172 43.6831 487.563 49.8356C494.027 56.0606 500.365 62.7741 506.358 69.9581C533.263 102.187 552.221 139.174 567.484 177.284C571.54 187.418 575.107 198.474 578.475 209.549C581.824 220.569 584.866 231.933 587.636 243.533C590.461 255.349 593.05 267.546 595.277 279.959C602.411 319.589 605.815 360.16 605.815 399.5C605.815 529.355 556.964 783.003 379.307 797.607" stroke="url(#paint40_linear_948_26365)" stroke-width="2" stroke-miterlimit="10"/>
<path d="M379.307 1.39331C402.808 0.832339 431.126 8.52304 451.55 19.3624C458.992 23.3073 466.615 27.7226 473.875 32.8256C481.136 37.9467 488.143 43.665 494.969 49.7995C501.867 56.0063 508.657 62.7198 515.031 69.8857C542.606 100.956 564.967 138.541 580.394 177.212C584.54 187.599 588.56 198.402 592.181 209.494C595.766 220.515 599.043 231.879 602.013 243.496C605.036 255.331 607.969 267.618 610.178 279.923C617.276 319.354 621.404 359.906 621.44 399.482C621.531 537.607 564.732 784.849 379.325 797.588" stroke="url(#paint41_linear_948_26365)" stroke-width="2" stroke-miterlimit="10"/>
<path d="M379.307 1.39334C404.276 0.814272 434.169 8.39639 456.204 19.3624C464.135 23.3073 472.246 27.7227 479.959 32.8257C487.673 37.9287 495.114 43.6288 502.357 49.7452C509.69 55.9339 516.896 62.6475 523.668 69.8134C552.728 100.576 576.646 138.161 593.268 177.157C597.704 187.544 601.995 198.366 605.852 209.458C609.69 220.479 613.185 231.861 616.353 243.478C619.594 255.313 622.708 267.6 625.062 279.905C632.613 319.3 637.012 359.888 637.03 399.5C637.121 545.877 570.726 788.197 379.289 797.607" stroke="url(#paint42_linear_948_26365)" stroke-width="2" stroke-miterlimit="10"/>
<path d="M379.306 1.3934C405.759 0.796242 437.21 8.28788 460.838 19.3625C469.258 23.3074 477.84 27.7227 486.024 32.8257C494.172 37.9106 502.066 43.5927 509.743 49.7091C517.511 55.8978 525.133 62.5752 532.322 69.7411C562.849 100.178 588.342 137.763 606.159 177.103C610.866 187.508 615.429 198.311 619.539 209.422C623.631 220.461 627.343 231.825 630.71 243.442C634.151 255.277 637.446 267.582 639.945 279.869C647.948 319.245 652.601 359.852 652.619 399.5C652.728 549.351 576.627 791.852 379.252 797.607" stroke="url(#paint43_linear_948_26365)" stroke-width="2" stroke-miterlimit="10"/>
<path d="M379.307 1.39331C411.3 3.61909 436.595 8.05255 465.492 19.3624C474.382 22.8368 483.453 27.7226 492.108 32.8256C500.709 37.8924 509.037 43.5564 517.149 49.6547C525.351 55.8253 533.39 62.5027 540.995 69.6505C572.97 99.7799 600.021 137.329 619.087 177.031C624.084 187.436 628.918 198.257 633.282 209.368C637.609 220.406 641.556 231.77 645.141 243.406C648.781 255.241 652.275 267.546 654.919 279.851C663.356 319.209 667.738 359.273 668.317 399.5C670.581 559.611 580.014 792.847 379.325 797.607" stroke="url(#paint44_linear_948_26365)" stroke-width="2" stroke-miterlimit="10"/>
<path d="M379.307 1.39331C412.749 3.60099 439.727 8.07064 470.145 19.3805C479.524 22.873 489.066 27.7407 498.192 32.8256C507.245 37.8743 516.008 43.5202 524.554 49.6185C533.191 55.7711 541.647 62.4484 549.65 69.5962C583.055 99.4361 611.681 136.967 631.978 176.976C637.265 187.381 642.371 198.221 646.97 209.332C651.551 220.37 655.715 231.752 659.5 243.388C663.356 255.241 667.032 267.546 669.802 279.833C678.692 319.155 683.309 359.201 683.907 399.518C686.405 567.628 580.647 796.503 379.307 797.625" stroke="url(#paint45_linear_948_26365)" stroke-width="2" stroke-miterlimit="10"/>
<path d="M379.307 1.39331C414.215 3.5829 442.841 8.07064 474.799 19.3805C484.648 22.873 494.697 27.7407 504.294 32.8256C513.781 37.8563 522.997 43.484 531.978 49.5642C541.031 55.7168 549.921 62.3579 558.34 69.5057C593.159 99.0742 623.342 136.532 644.906 176.904C650.465 187.327 655.842 198.148 660.695 209.277C665.511 220.316 669.911 231.698 673.894 243.334C677.95 255.186 681.825 267.491 684.74 279.778C694.082 319.082 698.917 359.11 699.551 399.482C702.339 577.671 583.436 797.588 379.325 797.588" stroke="url(#paint46_linear_948_26365)" stroke-width="2" stroke-miterlimit="10"/>
<path d="M379.307 1.39331C413.437 1.39331 447.459 7.54587 479.452 19.3805C489.99 23.2711 500.329 27.7588 510.378 32.8256C520.3 37.8382 529.987 43.4478 539.366 49.5099C548.853 55.6444 558.16 62.2855 566.996 69.4153C603.208 98.7123 634.966 136.116 657.798 176.832C663.646 187.255 669.296 198.094 674.383 209.223C679.453 220.28 684.07 231.662 688.253 243.297C692.508 255.15 696.564 267.473 699.623 279.742C709.401 319.028 714.489 359.02 715.14 399.482C718.182 585.054 586.55 797.607 379.289 797.588" stroke="url(#paint47_linear_948_26365)" stroke-width="2" stroke-miterlimit="10"/>
<path d="M379.307 1.39331C414.94 1.39331 450.5 7.50968 484.105 19.3805C495.132 23.2711 505.941 27.7588 516.461 32.8256C526.836 37.8201 536.957 43.4117 546.771 49.4737C556.693 55.5901 566.416 62.2312 575.65 69.361C614.397 99.3094 645.359 136.044 670.689 176.795C676.99 186.947 682.73 198.058 688.071 209.205C693.376 220.261 698.229 231.644 702.629 243.297C707.083 255.15 711.338 267.473 714.542 279.742C724.772 318.992 730.078 358.965 730.784 399.518C734.079 592.22 589.411 797.643 379.325 797.625" stroke="url(#paint48_linear_948_26365)" stroke-width="2" stroke-miterlimit="10"/>
<path d="M379.307 1.39331C416.461 1.39331 453.56 7.47349 488.758 19.3805C500.274 23.2711 511.554 27.7588 522.545 32.8256C533.354 37.8201 543.928 43.3755 554.176 49.4194C564.533 55.5358 574.69 62.1408 584.323 69.2705C624.5 98.9656 656.947 135.682 683.599 176.705C690.19 186.857 696.201 197.986 701.796 209.114C707.354 220.171 712.424 231.553 717.023 243.225C721.694 255.078 726.13 267.401 729.462 279.67C740.126 318.901 745.685 358.839 746.409 399.464C749.976 599.042 591.964 797.588 379.325 797.57" stroke="url(#paint49_linear_948_26365)" stroke-width="2" stroke-miterlimit="10"/>
<path d="M379.307 1.39331C418.434 2.93145 455.95 7.23824 493.412 19.3805C505.416 23.2711 517.167 27.7588 528.628 32.8256C539.89 37.802 550.899 43.3393 561.581 49.3833C572.373 55.4815 583.182 62.0503 592.996 69.2162C633.916 99.1285 668.136 134.813 696.509 176.669C703.389 186.802 709.654 197.949 715.502 209.096C721.296 220.171 726.601 231.553 731.399 243.207C736.27 255.078 740.905 267.401 744.381 279.652C755.481 318.847 761.293 358.748 762.035 399.482C765.855 605.737 594.227 797.625 379.325 797.588" stroke="url(#paint50_linear_948_26365)" stroke-width="2" stroke-miterlimit="10"/>
<path d="M379.307 1.39332C596.255 1.35712 777.642 182.695 777.642 399.5C777.642 616.305 596.255 797.643 379.307 797.607" stroke="url(#paint51_linear_948_26365)" stroke-width="2" stroke-miterlimit="10"/>
</g>
<defs>
<linearGradient id="paint0_linear_948_26365" x1="54.137" y1="293.929" x2="503.616" y2="457.609" gradientUnits="userSpaceOnUse">
<stop stop-color="#708E77"/>
<stop offset="0.28" stop-color="#4D725C"/>
<stop offset="0.56" stop-color="#315C47"/>
<stop offset="0.81" stop-color="#214E3A"/>
<stop offset="1" stop-color="#1B4A36"/>
</linearGradient>
<linearGradient id="paint1_linear_948_26365" x1="60.8551" y1="295.413" x2="503.926" y2="456.756" gradientUnits="userSpaceOnUse">
<stop stop-color="#708E77"/>
<stop offset="0.28" stop-color="#4D725C"/>
<stop offset="0.56" stop-color="#315C47"/>
<stop offset="0.81" stop-color="#214E3A"/>
<stop offset="1" stop-color="#1B4A36"/>
</linearGradient>
<linearGradient id="paint2_linear_948_26365" x1="67.5354" y1="296.915" x2="504.234" y2="455.939" gradientUnits="userSpaceOnUse">
<stop stop-color="#708E77"/>
<stop offset="0.28" stop-color="#4D725C"/>
<stop offset="0.56" stop-color="#315C47"/>
<stop offset="0.81" stop-color="#214E3A"/>
<stop offset="1" stop-color="#1B4A36"/>
</linearGradient>
<linearGradient id="paint3_linear_948_26365" x1="74.4159" y1="298.526" x2="504.524" y2="455.159" gradientUnits="userSpaceOnUse">
<stop stop-color="#708E77"/>
<stop offset="0.28" stop-color="#4D725C"/>
<stop offset="0.56" stop-color="#315C47"/>
<stop offset="0.81" stop-color="#214E3A"/>
<stop offset="1" stop-color="#1B4A36"/>
</linearGradient>
<linearGradient id="paint4_linear_948_26365" x1="81.4597" y1="300.172" x2="504.816" y2="454.342" gradientUnits="userSpaceOnUse">
<stop stop-color="#708E77"/>
<stop offset="0.28" stop-color="#4D725C"/>
<stop offset="0.56" stop-color="#315C47"/>
<stop offset="0.81" stop-color="#214E3A"/>
<stop offset="1" stop-color="#1B4A36"/>
</linearGradient>
<linearGradient id="paint5_linear_948_26365" x1="88.7565" y1="301.747" x2="505.142" y2="453.38" gradientUnits="userSpaceOnUse">
<stop stop-color="#708E77"/>
<stop offset="0.28" stop-color="#4D725C"/>
<stop offset="0.56" stop-color="#315C47"/>
<stop offset="0.81" stop-color="#214E3A"/>
<stop offset="1" stop-color="#1B4A36"/>
</linearGradient>
<linearGradient id="paint6_linear_948_26365" x1="96.1266" y1="303.918" x2="505.362" y2="452.943" gradientUnits="userSpaceOnUse">
<stop stop-color="#708E77"/>
<stop offset="0.28" stop-color="#4D725C"/>
<stop offset="0.56" stop-color="#315C47"/>
<stop offset="0.81" stop-color="#214E3A"/>
<stop offset="1" stop-color="#1B4A36"/>
</linearGradient>
<linearGradient id="paint7_linear_948_26365" x1="104.002" y1="305.927" x2="505.597" y2="452.18" gradientUnits="userSpaceOnUse">
<stop stop-color="#708E77"/>
<stop offset="0.28" stop-color="#4D725C"/>
<stop offset="0.56" stop-color="#315C47"/>
<stop offset="0.81" stop-color="#214E3A"/>
<stop offset="1" stop-color="#1B4A36"/>
</linearGradient>
<linearGradient id="paint8_linear_948_26365" x1="112.402" y1="308.189" x2="505.833" y2="451.472" gradientUnits="userSpaceOnUse">
<stop stop-color="#708E77"/>
<stop offset="0.28" stop-color="#4D725C"/>
<stop offset="0.56" stop-color="#315C47"/>
<stop offset="0.81" stop-color="#214E3A"/>
<stop offset="1" stop-color="#1B4A36"/>
</linearGradient>
<linearGradient id="paint9_linear_948_26365" x1="121.565" y1="310.958" x2="506.016" y2="450.98" gradientUnits="userSpaceOnUse">
<stop stop-color="#708E77"/>
<stop offset="0.28" stop-color="#4D725C"/>
<stop offset="0.56" stop-color="#315C47"/>
<stop offset="0.81" stop-color="#214E3A"/>
<stop offset="1" stop-color="#1B4A36"/>
</linearGradient>
<linearGradient id="paint10_linear_948_26365" x1="131.94" y1="314.07" x2="506.217" y2="450.361" gradientUnits="userSpaceOnUse">
<stop stop-color="#708E77"/>
<stop offset="0.28" stop-color="#4D725C"/>
<stop offset="0.56" stop-color="#315C47"/>
<stop offset="0.81" stop-color="#214E3A"/>
<stop offset="1" stop-color="#1B4A36"/>
</linearGradient>
<linearGradient id="paint11_linear_948_26365" x1="143.709" y1="317.707" x2="506.417" y2="449.796" gradientUnits="userSpaceOnUse">
<stop stop-color="#708E77"/>
<stop offset="0.28" stop-color="#4D725C"/>
<stop offset="0.56" stop-color="#315C47"/>
<stop offset="0.81" stop-color="#214E3A"/>
<stop offset="1" stop-color="#1B4A36"/>
</linearGradient>
<linearGradient id="paint12_linear_948_26365" x1="155.622" y1="321.453" x2="506.581" y2="449.266" gradientUnits="userSpaceOnUse">
<stop stop-color="#708E77"/>
<stop offset="0.28" stop-color="#4D725C"/>
<stop offset="0.56" stop-color="#315C47"/>
<stop offset="0.81" stop-color="#214E3A"/>
<stop offset="1" stop-color="#1B4A36"/>
</linearGradient>
<linearGradient id="paint13_linear_948_26365" x1="167.302" y1="324.964" x2="506.783" y2="448.611" gradientUnits="userSpaceOnUse">
<stop stop-color="#708E77"/>
<stop offset="0.28" stop-color="#4D725C"/>
<stop offset="0.56" stop-color="#315C47"/>
<stop offset="0.81" stop-color="#214E3A"/>
<stop offset="1" stop-color="#1B4A36"/>
</linearGradient>
<linearGradient id="paint14_linear_948_26365" x1="178.291" y1="328.311" x2="506.982" y2="448.01" gradientUnits="userSpaceOnUse">
<stop stop-color="#708E77"/>
<stop offset="0.28" stop-color="#4D725C"/>
<stop offset="0.56" stop-color="#315C47"/>
<stop offset="0.81" stop-color="#214E3A"/>
<stop offset="1" stop-color="#1B4A36"/>
</linearGradient>
<linearGradient id="paint15_linear_948_26365" x1="188.377" y1="331.768" x2="507.057" y2="447.825" gradientUnits="userSpaceOnUse">
<stop stop-color="#708E77"/>
<stop offset="0.28" stop-color="#4D725C"/>
<stop offset="0.56" stop-color="#315C47"/>
<stop offset="0.81" stop-color="#214E3A"/>
<stop offset="1" stop-color="#1B4A36"/>
</linearGradient>
<linearGradient id="paint16_linear_948_26365" x1="198.009" y1="335.061" x2="507.167" y2="447.659" gradientUnits="userSpaceOnUse">
<stop stop-color="#708E77"/>
<stop offset="0.28" stop-color="#4D725C"/>
<stop offset="0.56" stop-color="#315C47"/>
<stop offset="0.81" stop-color="#214E3A"/>
<stop offset="1" stop-color="#1B4A36"/>
</linearGradient>
<linearGradient id="paint17_linear_948_26365" x1="207.389" y1="338.137" x2="507.259" y2="447.329" gradientUnits="userSpaceOnUse">
<stop stop-color="#708E77"/>
<stop offset="0.28" stop-color="#4D725C"/>
<stop offset="0.56" stop-color="#315C47"/>
<stop offset="0.81" stop-color="#214E3A"/>
<stop offset="1" stop-color="#1B4A36"/>
</linearGradient>
<linearGradient id="paint18_linear_948_26365" x1="215.988" y1="341.141" x2="507.332" y2="447.236" gradientUnits="userSpaceOnUse">
<stop stop-color="#708E77"/>
<stop offset="0.28" stop-color="#4D725C"/>
<stop offset="0.56" stop-color="#315C47"/>
<stop offset="0.81" stop-color="#214E3A"/>
<stop offset="1" stop-color="#1B4A36"/>
</linearGradient>
<linearGradient id="paint19_linear_948_26365" x1="223.918" y1="343.693" x2="507.405" y2="446.943" gradientUnits="userSpaceOnUse">
<stop stop-color="#708E77"/>
<stop offset="0.28" stop-color="#4D725C"/>
<stop offset="0.56" stop-color="#315C47"/>
<stop offset="0.81" stop-color="#214E3A"/>
<stop offset="1" stop-color="#1B4A36"/>
</linearGradient>
<linearGradient id="paint20_linear_948_26365" x1="230.473" y1="345.683" x2="507.442" y2="446.561" gradientUnits="userSpaceOnUse">
<stop stop-color="#708E77"/>
<stop offset="0.28" stop-color="#4D725C"/>
<stop offset="0.56" stop-color="#315C47"/>
<stop offset="0.81" stop-color="#214E3A"/>
<stop offset="1" stop-color="#1B4A36"/>
</linearGradient>
<linearGradient id="paint21_linear_948_26365" x1="236.105" y1="347.547" x2="507.425" y2="446.36" gradientUnits="userSpaceOnUse">
<stop stop-color="#708E77"/>
<stop offset="0.28" stop-color="#4D725C"/>
<stop offset="0.56" stop-color="#315C47"/>
<stop offset="0.81" stop-color="#214E3A"/>
<stop offset="1" stop-color="#1B4A36"/>
</linearGradient>
<linearGradient id="paint22_linear_948_26365" x1="241.246" y1="349.357" x2="507.407" y2="446.285" gradientUnits="userSpaceOnUse">
<stop stop-color="#708E77"/>
<stop offset="0.28" stop-color="#4D725C"/>
<stop offset="0.56" stop-color="#315C47"/>
<stop offset="0.81" stop-color="#214E3A"/>
<stop offset="1" stop-color="#1B4A36"/>
</linearGradient>
<linearGradient id="paint23_linear_948_26365" x1="245.502" y1="350.859" x2="507.372" y2="446.23" gradientUnits="userSpaceOnUse">
<stop stop-color="#708E77"/>
<stop offset="0.28" stop-color="#4D725C"/>
<stop offset="0.56" stop-color="#315C47"/>
<stop offset="0.81" stop-color="#214E3A"/>
<stop offset="1" stop-color="#1B4A36"/>
</linearGradient>
<linearGradient id="paint24_linear_948_26365" x1="248.38" y1="351.926" x2="507.481" y2="446.283" gradientUnits="userSpaceOnUse">
<stop stop-color="#708E77"/>
<stop offset="0.28" stop-color="#4D725C"/>
<stop offset="0.56" stop-color="#315C47"/>
<stop offset="0.81" stop-color="#214E3A"/>
<stop offset="1" stop-color="#1B4A36"/>
</linearGradient>
<linearGradient id="paint25_linear_948_26365" x1="249.955" y1="352.107" x2="508.512" y2="446.265" gradientUnits="userSpaceOnUse">
<stop stop-color="#708E77"/>
<stop offset="0.28" stop-color="#4D725C"/>
<stop offset="0.56" stop-color="#315C47"/>
<stop offset="0.81" stop-color="#214E3A"/>
<stop offset="1" stop-color="#1B4A36"/>
</linearGradient>
<linearGradient id="paint26_linear_948_26365" x1="251.151" y1="351.944" x2="509.6" y2="446.066" gradientUnits="userSpaceOnUse">
<stop stop-color="#708E77"/>
<stop offset="0.28" stop-color="#4D725C"/>
<stop offset="0.56" stop-color="#315C47"/>
<stop offset="0.81" stop-color="#214E3A"/>
<stop offset="1" stop-color="#1B4A36"/>
</linearGradient>
<linearGradient id="paint27_linear_948_26365" x1="251.024" y1="352.306" x2="509.654" y2="446.482" gradientUnits="userSpaceOnUse">
<stop stop-color="#708E77"/>
<stop offset="0.28" stop-color="#4D725C"/>
<stop offset="0.56" stop-color="#315C47"/>
<stop offset="0.81" stop-color="#214E3A"/>
<stop offset="1" stop-color="#1B4A36"/>
</linearGradient>
<linearGradient id="paint28_linear_948_26365" x1="250.987" y1="352.433" x2="512.803" y2="447.786" gradientUnits="userSpaceOnUse">
<stop stop-color="#708E77"/>
<stop offset="0.28" stop-color="#4D725C"/>
<stop offset="0.56" stop-color="#315C47"/>
<stop offset="0.81" stop-color="#214E3A"/>
<stop offset="1" stop-color="#1B4A36"/>
</linearGradient>
<linearGradient id="paint29_linear_948_26365" x1="251.007" y1="352.379" x2="517.729" y2="449.525" gradientUnits="userSpaceOnUse">
<stop stop-color="#708E77"/>
<stop offset="0.28" stop-color="#4D725C"/>
<stop offset="0.56" stop-color="#315C47"/>
<stop offset="0.81" stop-color="#214E3A"/>
<stop offset="1" stop-color="#1B4A36"/>
</linearGradient>
<linearGradient id="paint30_linear_948_26365" x1="251.024" y1="352.306" x2="523.232" y2="451.427" gradientUnits="userSpaceOnUse">
<stop stop-color="#708E77"/>
<stop offset="0.28" stop-color="#4D725C"/>
<stop offset="0.56" stop-color="#315C47"/>
<stop offset="0.81" stop-color="#214E3A"/>
<stop offset="1" stop-color="#1B4A36"/>
</linearGradient>
<linearGradient id="paint31_linear_948_26365" x1="251.097" y1="352.107" x2="529.858" y2="453.637" gradientUnits="userSpaceOnUse">
<stop stop-color="#708E77"/>
<stop offset="0.28" stop-color="#4D725C"/>
<stop offset="0.56" stop-color="#315C47"/>
<stop offset="0.81" stop-color="#214E3A"/>
<stop offset="1" stop-color="#1B4A36"/>
</linearGradient>
<linearGradient id="paint32_linear_948_26365" x1="251.169" y1="351.926" x2="537.426" y2="456.173" gradientUnits="userSpaceOnUse">
<stop stop-color="#708E77"/>
<stop offset="0.28" stop-color="#4D725C"/>
<stop offset="0.56" stop-color="#315C47"/>
<stop offset="0.81" stop-color="#214E3A"/>
<stop offset="1" stop-color="#1B4A36"/>
</linearGradient>
<linearGradient id="paint33_linear_948_26365" x1="251.26" y1="351.691" x2="545.555" y2="458.854" gradientUnits="userSpaceOnUse">
<stop stop-color="#708E77"/>
<stop offset="0.28" stop-color="#4D725C"/>
<stop offset="0.56" stop-color="#315C47"/>
<stop offset="0.81" stop-color="#214E3A"/>
<stop offset="1" stop-color="#1B4A36"/>
</linearGradient>
<linearGradient id="paint34_linear_948_26365" x1="251.35" y1="351.401" x2="554.678" y2="461.862" gradientUnits="userSpaceOnUse">
<stop stop-color="#708E77"/>
<stop offset="0.28" stop-color="#4D725C"/>
<stop offset="0.56" stop-color="#315C47"/>
<stop offset="0.81" stop-color="#214E3A"/>
<stop offset="1" stop-color="#1B4A36"/>
</linearGradient>
<linearGradient id="paint35_linear_948_26365" x1="251.477" y1="351.076" x2="564.382" y2="465.032" gradientUnits="userSpaceOnUse">
<stop stop-color="#708E77"/>
<stop offset="0.28" stop-color="#4D725C"/>
<stop offset="0.56" stop-color="#315C47"/>
<stop offset="0.81" stop-color="#214E3A"/>
<stop offset="1" stop-color="#1B4A36"/>
</linearGradient>
<linearGradient id="paint36_linear_948_26365" x1="251.604" y1="350.714" x2="574.719" y2="468.383" gradientUnits="userSpaceOnUse">
<stop stop-color="#708E77"/>
<stop offset="0.28" stop-color="#4D725C"/>
<stop offset="0.56" stop-color="#315C47"/>
<stop offset="0.81" stop-color="#214E3A"/>
<stop offset="1" stop-color="#1B4A36"/>
</linearGradient>
<linearGradient id="paint37_linear_948_26365" x1="251.749" y1="350.316" x2="585.364" y2="471.807" gradientUnits="userSpaceOnUse">
<stop stop-color="#708E77"/>
<stop offset="0.28" stop-color="#4D725C"/>
<stop offset="0.56" stop-color="#315C47"/>
<stop offset="0.81" stop-color="#214E3A"/>
<stop offset="1" stop-color="#1B4A36"/>
</linearGradient>
<linearGradient id="paint38_linear_948_26365" x1="251.912" y1="349.881" x2="596.227" y2="475.286" gradientUnits="userSpaceOnUse">
<stop stop-color="#708E77"/>
<stop offset="0.28" stop-color="#4D725C"/>
<stop offset="0.56" stop-color="#315C47"/>
<stop offset="0.81" stop-color="#214E3A"/>
<stop offset="1" stop-color="#1B4A36"/>
</linearGradient>
<linearGradient id="paint39_linear_948_26365" x1="252.075" y1="349.429" x2="607.686" y2="478.927" gradientUnits="userSpaceOnUse">
<stop stop-color="#708E77"/>
<stop offset="0.28" stop-color="#4D725C"/>
<stop offset="0.56" stop-color="#315C47"/>
<stop offset="0.81" stop-color="#214E3A"/>
<stop offset="1" stop-color="#1B4A36"/>
</linearGradient>
<linearGradient id="paint40_linear_948_26365" x1="252.256" y1="348.94" x2="619.236" y2="482.587" gradientUnits="userSpaceOnUse">
<stop stop-color="#708E77"/>
<stop offset="0.28" stop-color="#4D725C"/>
<stop offset="0.56" stop-color="#315C47"/>
<stop offset="0.81" stop-color="#214E3A"/>
<stop offset="1" stop-color="#1B4A36"/>
</linearGradient>
<linearGradient id="paint41_linear_948_26365" x1="252.419" y1="348.398" x2="631.112" y2="486.301" gradientUnits="userSpaceOnUse">
<stop stop-color="#708E77"/>
<stop offset="0.28" stop-color="#4D725C"/>
<stop offset="0.56" stop-color="#315C47"/>
<stop offset="0.81" stop-color="#214E3A"/>
<stop offset="1" stop-color="#1B4A36"/>
</linearGradient>
<linearGradient id="paint42_linear_948_26365" x1="252.618" y1="347.837" x2="643.062" y2="490.015" gradientUnits="userSpaceOnUse">
<stop stop-color="#708E77"/>
<stop offset="0.28" stop-color="#4D725C"/>
<stop offset="0.56" stop-color="#315C47"/>
<stop offset="0.81" stop-color="#214E3A"/>
<stop offset="1" stop-color="#1B4A36"/>
</linearGradient>
<linearGradient id="paint43_linear_948_26365" x1="252.835" y1="347.24" x2="654.738" y2="493.602" gradientUnits="userSpaceOnUse">
<stop stop-color="#708E77"/>
<stop offset="0.28" stop-color="#4D725C"/>
<stop offset="0.56" stop-color="#315C47"/>
<stop offset="0.81" stop-color="#214E3A"/>
<stop offset="1" stop-color="#1B4A36"/>
</linearGradient>
<linearGradient id="paint44_linear_948_26365" x1="253.125" y1="346.805" x2="667.773" y2="497.823" gradientUnits="userSpaceOnUse">
<stop stop-color="#708E77"/>
<stop offset="0.28" stop-color="#4D725C"/>
<stop offset="0.56" stop-color="#315C47"/>
<stop offset="0.81" stop-color="#214E3A"/>
<stop offset="1" stop-color="#1B4A36"/>
</linearGradient>
<linearGradient id="paint45_linear_948_26365" x1="253.378" y1="346.099" x2="679.92" y2="501.446" gradientUnits="userSpaceOnUse">
<stop stop-color="#708E77"/>
<stop offset="0.28" stop-color="#4D725C"/>
<stop offset="0.56" stop-color="#315C47"/>
<stop offset="0.81" stop-color="#214E3A"/>
<stop offset="1" stop-color="#1B4A36"/>
</linearGradient>
<linearGradient id="paint46_linear_948_26365" x1="253.65" y1="345.357" x2="693.009" y2="505.36" gradientUnits="userSpaceOnUse">
<stop stop-color="#708E77"/>
<stop offset="0.28" stop-color="#4D725C"/>
<stop offset="0.56" stop-color="#315C47"/>
<stop offset="0.81" stop-color="#214E3A"/>
<stop offset="1" stop-color="#1B4A36"/>
</linearGradient>
<linearGradient id="paint47_linear_948_26365" x1="253.831" y1="344.579" x2="705.99" y2="509.237" gradientUnits="userSpaceOnUse">
<stop stop-color="#708E77"/>
<stop offset="0.28" stop-color="#4D725C"/>
<stop offset="0.56" stop-color="#315C47"/>
<stop offset="0.81" stop-color="#214E3A"/>
<stop offset="1" stop-color="#1B4A36"/>
</linearGradient>
<linearGradient id="paint48_linear_948_26365" x1="254.121" y1="343.837" x2="719.115" y2="513.187" gradientUnits="userSpaceOnUse">
<stop stop-color="#708E77"/>
<stop offset="0.28" stop-color="#4D725C"/>
<stop offset="0.56" stop-color="#315C47"/>
<stop offset="0.81" stop-color="#214E3A"/>
<stop offset="1" stop-color="#1B4A36"/>
</linearGradient>
<linearGradient id="paint49_linear_948_26365" x1="254.392" y1="343.041" x2="732.403" y2="517.136" gradientUnits="userSpaceOnUse">
<stop stop-color="#708E77"/>
<stop offset="0.28" stop-color="#4D725C"/>
<stop offset="0.56" stop-color="#315C47"/>
<stop offset="0.81" stop-color="#214E3A"/>
<stop offset="1" stop-color="#1B4A36"/>
</linearGradient>
<linearGradient id="paint50_linear_948_26365" x1="254.736" y1="342.263" x2="745.8" y2="521.086" gradientUnits="userSpaceOnUse">
<stop stop-color="#708E77"/>
<stop offset="0.28" stop-color="#4D725C"/>
<stop offset="0.56" stop-color="#315C47"/>
<stop offset="0.81" stop-color="#214E3A"/>
<stop offset="1" stop-color="#1B4A36"/>
</linearGradient>
<linearGradient id="paint51_linear_948_26365" x1="254.881" y1="341.738" x2="758.255" y2="525.054" gradientUnits="userSpaceOnUse">
<stop stop-color="#708E77"/>
<stop offset="0.28" stop-color="#4D725C"/>
<stop offset="0.56" stop-color="#315C47"/>
<stop offset="0.81" stop-color="#214E3A"/>
<stop offset="1" stop-color="#1B4A36"/>
</linearGradient>
<clipPath id="clip0_948_26365">
<rect width="779" height="799" fill="white"/>
</clipPath>
</defs>
</svg>
