<svg width="359" height="32" viewBox="0 0 359 32" fill="none" xmlns="http://www.w3.org/2000/svg">
<path d="M88.9525 21.103C88.8211 21.0933 88.714 21.0884 88.607 21.0836C87.4876 21.0609 86.9279 20.485 86.9279 19.3558C86.9279 18.324 86.9279 17.2923 86.9279 16.2605C86.9279 13.9487 86.9279 11.559 86.923 9.2083C86.9084 6.05454 85.8328 3.72328 83.6379 2.08313C81.8955 0.778797 79.8125 0.150964 77.0724 0.102295C76.9653 0.102295 76.8631 0.102295 76.756 0.102295C73.3979 0.102295 70.7162 1.08541 68.5601 3.10518C66.993 4.57499 66.1218 6.36115 65.9612 8.41013L65.9417 8.64374H70.4874L70.5458 8.52206C70.6626 8.27872 70.7648 8.03537 70.8671 7.80176C71.0666 7.33454 71.2515 6.89651 71.5144 6.52663C72.5656 5.05195 74.5756 4.13697 76.7706 4.13697C78.4059 4.13697 79.8514 4.65286 80.8394 5.58245C81.3504 6.06427 81.7884 6.79431 82.0415 7.57788C82.2702 8.28845 82.28 8.78974 82.0756 9.1645C81.8663 9.55385 81.4039 9.83127 80.6252 10.0454C80.2115 10.1573 79.754 10.2206 79.389 10.2742C78.6006 10.3812 77.8121 10.4883 77.0237 10.5905C75.4663 10.7949 73.8602 11.0042 72.2833 11.2573C69.7817 11.6564 68.0296 12.5178 66.774 13.9779C65.6156 15.326 65.1095 17.1706 65.3869 19.0492C65.6887 21.0738 66.8275 22.8454 68.5115 23.9161C70.103 24.9284 71.967 25.42 74.2009 25.42C74.8579 25.42 75.5636 25.3811 76.3472 25.2983C78.3378 25.0891 80.0315 24.3298 81.3845 23.0498C81.769 22.6848 82.095 22.276 82.4406 21.8428C82.499 21.7698 82.5525 21.6968 82.6109 21.6287C82.6304 21.7796 82.6499 21.9256 82.6693 22.0667C82.8591 23.2494 83.4967 24.0913 84.5577 24.5586C85.5165 24.9869 86.4947 25.0404 87.3318 25.0404C87.6287 25.0404 87.9256 25.0307 88.2274 25.0258C88.5242 25.0161 88.8211 25.0112 89.1229 25.0112H89.3857V21.1274L88.9379 21.103H88.9525ZM81.5013 18.2121C80.4306 20.0859 78.7369 21.1177 76.3277 21.3707C75.8994 21.4145 75.5101 21.434 75.1305 21.434C74.1279 21.434 73.2567 21.2783 72.4634 20.9522C70.7064 20.2319 69.8353 18.6647 70.2976 17.0489C70.6821 15.6959 71.7723 15.2189 72.6191 15.0535C74.05 14.7761 75.5198 14.5619 76.9458 14.3526C77.5153 14.2699 78.0847 14.1872 78.6541 14.0996C79.8806 13.9097 81.073 13.6615 82.2021 12.7855C82.1924 13.1992 82.2021 13.6031 82.2021 13.9973C82.2264 15.4964 82.2459 16.9126 81.5013 18.2121Z" fill="black"/>
<path d="M33.4643 17.1755C31.9312 19.8231 31.4639 20.3146 29.9114 20.9425C29.0694 21.2831 28.1739 21.4535 27.2541 21.4535C26.4364 21.4535 25.5701 21.3172 24.6843 21.0447C22.2411 20.3 19.8125 17.4237 19.8807 13.8562H38.2679L38.2484 13.6226C38.2046 13.1846 38.1706 12.7514 38.1414 12.328C38.0684 11.4179 38.0002 10.5565 37.8688 9.69014C36.983 3.79144 32.7537 0.121778 26.8258 0.107178H26.7868C22.246 0.107178 18.844 2.05881 16.6734 5.89881C15.116 8.65835 14.639 11.7927 15.2182 15.4818C15.6611 18.3143 16.8486 20.6261 18.737 22.349C21.1169 24.5196 23.8424 25.6196 26.8404 25.6196C28.4757 25.6196 30.2083 25.2886 31.9896 24.6364C35.1433 23.483 37.1728 21.0252 38.0294 17.3215L38.0927 17.0587H33.5275L33.4643 17.1657V17.1755ZM26.6652 4.24406H26.7868C30.8945 4.24406 32.7586 7.7093 33.0262 10.0454H20.1678C20.5572 7.17394 22.869 4.30733 26.6652 4.24406Z" fill="black"/>
<path d="M51.7206 19.1028L44.3229 0.735012H39.125L49.2677 24.982H54.1443L64.2967 0.705811H59.0891L51.7206 19.1028Z" fill="black"/>
<path d="M114.854 0.501221H110.172V25.0013H114.854V0.501221Z" fill="black"/>
<path d="M0 4.27307V25.0013H4.69171V5.18318H13.5349V0.496338H3.83513C1.71802 0.496338 0 2.19003 0 4.27307Z" fill="black"/>
<path d="M92.9619 4.27307V25.0013H97.6536V5.18318H106.497V0.496338H96.7922C94.6799 0.496338 92.957 2.19003 92.957 4.27307" fill="black"/>
<path d="M131.756 11.3497L128.631 10.2011C126.733 9.55376 124.373 8.75559 124.373 6.85262C124.373 5.06646 126.363 4.13201 128.329 4.13201C130.748 4.13201 133.474 5.27087 133.863 8.46844L133.887 8.65825H138.457L138.433 8.41977C137.854 3.1489 134.126 0 128.466 0C123.122 0 119.666 2.72547 119.666 6.93536C119.666 11.6125 123.677 12.9509 126.894 14.0216L130.451 15.2529C132.943 16.1144 134.204 16.8347 134.204 18.397C134.204 20.9716 131.843 21.5118 129.862 21.5118C126.855 21.5118 123.745 19.9203 123.745 17.2581V17.0439H119.141L119.155 17.2727C119.472 22.31 123.584 25.5659 129.639 25.5659C135.693 25.5659 139.046 22.9573 139.046 18.5868C139.046 14.5472 136.37 12.873 131.746 11.3497" fill="black"/>
<path d="M142.723 22.1103C142.723 23.0837 143.044 23.8965 143.686 24.5487C144.329 25.2008 145.132 25.5269 146.091 25.5269C147.049 25.5269 147.857 25.2008 148.519 24.5487C149.181 23.8965 149.512 23.0837 149.512 22.1103C149.512 21.137 149.181 20.3777 148.519 19.7207C147.857 19.0685 147.049 18.7424 146.091 18.7424C145.132 18.7424 144.334 19.0685 143.686 19.7207C143.044 20.3728 142.723 21.171 142.723 22.1103Z" fill="black"/>
<path d="M357.98 17.6815C358.014 17.443 358.048 17.1072 358.048 16.7324C358.048 11.7487 355.304 8.35645 350.383 8.35645C346.28 8.35645 342.684 11.7487 342.684 16.9028C342.684 22.3634 346.382 25.5513 350.724 25.5513C354.486 25.5513 357.031 23.2784 357.946 20.4653L355.605 19.6185C354.963 21.5507 353.469 23.1129 350.724 23.1129C347.808 23.1129 345.467 20.9082 345.467 17.8226V17.6863H357.98V17.6815ZM350.417 10.7607C353.537 10.7607 355.133 12.7951 355.231 15.3745H345.531C345.701 12.9654 347.565 10.7607 350.417 10.7607Z" fill="black"/>
<path d="M336.755 22.8697V23.0059C336.755 23.8187 336.823 24.6996 336.925 25.0744H339.534C339.432 24.432 339.33 23.2785 339.33 22.0228V8.82861H336.614V18.6306C336.614 21.2101 335.188 23.1082 332.477 23.1082C329.596 23.1082 328.477 20.9375 328.477 18.5965V8.82861H325.766V19.0394C325.766 22.6701 327.936 25.5513 331.869 25.5513C334.039 25.5513 335.972 24.5342 336.755 22.8697Z" fill="black"/>
<path d="M321.587 0.554932H318.871V25.0745H321.587V0.554932Z" fill="black"/>
<path d="M314.656 22.3586V14.1529C314.656 10.9992 312.724 8.35156 308.11 8.35156C304.582 8.35156 301.939 10.4541 301.564 13.5397L304.144 14.1481C304.382 12.0796 305.774 10.6536 308.179 10.6536C310.758 10.6536 311.941 12.0115 311.941 13.8755C311.941 14.5861 311.668 15.0971 310.481 15.2675L306.105 15.9099C303.258 16.3187 301.258 17.9102 301.258 20.7573C301.258 23.2005 303.258 25.5415 306.616 25.5415C309.532 25.5415 311.298 23.9452 312.009 22.6262C312.009 23.8819 312.111 24.6947 312.213 25.0694H314.861C314.759 24.5633 314.656 23.7116 314.656 22.3586ZM311.946 18.2217C311.946 21.648 309.775 23.2395 306.962 23.2395C305.098 23.2395 303.978 21.9497 303.978 20.6259C303.978 19.0296 305.064 18.1487 306.66 17.9102L311.95 17.1315V18.2168L311.946 18.2217Z" fill="black"/>
<path d="M293.616 25.0744L300.094 8.82861H297.179L292.258 21.9206L287.377 8.82861H284.32L290.866 25.0744H293.616Z" fill="black"/>
<path d="M269.536 8.82854V11.1355C268.723 9.54397 266.991 8.35645 264.416 8.35645C260.007 8.35645 257.023 11.8509 257.023 16.3966C257.023 20.9423 260.041 24.3686 264.348 24.3686C267.03 24.3686 268.723 22.9426 269.502 21.3511V23.9598C269.502 27.318 268.11 29.5567 264.314 29.5567C261.632 29.5567 259.87 27.7609 259.598 25.3517L256.984 25.999C257.359 29.4253 260.377 31.9999 264.309 31.9999C270.412 31.9999 272.213 27.829 272.213 23.8624V8.83827H269.531L269.536 8.82854ZM264.689 21.9205C261.705 21.9205 259.739 19.7499 259.739 16.3577C259.739 12.9654 261.705 10.7948 264.689 10.7948C267.672 10.7948 269.638 12.9654 269.638 16.3577C269.638 19.7499 267.672 21.9205 264.689 21.9205Z" fill="black"/>
<path d="M243.019 25.0743V15.5108C243.019 12.9313 244.48 10.7948 247.088 10.7948C250.038 10.7948 251.123 12.7269 251.123 15.0679V25.0743H253.839V14.664C253.839 11.1355 251.941 8.35645 248.037 8.35645C245.867 8.35645 244.003 9.37363 242.951 11.2717V8.82854H240.309V25.0743H243.024H243.019Z" fill="black"/>
<path d="M232.594 2.41889C232.594 3.53829 233.509 4.45327 234.628 4.45327C235.748 4.45327 236.662 3.53829 236.662 2.41889C236.662 1.2995 235.748 0.384521 234.628 0.384521C233.509 0.384521 232.594 1.2995 232.594 2.41889Z" fill="black"/>
<path d="M235.985 8.82861H233.27V25.0744H235.985V8.82861Z" fill="black"/>
<path d="M228.875 22.0229V0.554932H226.164V11.4422C225.619 10.0844 224.028 8.3566 220.908 8.3566C216.396 8.3566 213.379 12.2209 213.379 16.937C213.379 21.653 216.226 25.5514 220.908 25.5514C223.687 25.5514 225.522 23.8918 226.232 22.2955V22.7383C226.232 23.7896 226.301 24.7046 226.403 25.0793H229.05C228.948 24.7046 228.88 23.6533 228.88 22.0278L228.875 22.0229ZM221.142 23.1082C218.056 23.1082 216.09 20.5628 216.09 16.937C216.09 13.3111 218.056 10.7998 221.142 10.7998C224.227 10.7998 226.228 13.3452 226.228 16.937C226.228 20.5288 224.193 23.1082 221.142 23.1082Z" fill="black"/>
<path d="M209.938 0.554932H207.223V25.0745H209.938V0.554932Z" fill="black"/>
<path d="M199.48 2.41889C199.48 3.53829 200.395 4.45327 201.515 4.45327C202.634 4.45327 203.549 3.53829 203.549 2.41889C203.549 1.2995 202.634 0.384521 201.515 0.384521C200.395 0.384521 199.48 1.2995 199.48 2.41889Z" fill="black"/>
<path d="M202.871 8.82861H200.16V25.0744H202.871V8.82861Z" fill="black"/>
<path d="M193.228 22.8697V23.0059C193.228 23.8187 193.296 24.6996 193.398 25.0744H196.012C195.909 24.432 195.807 23.2785 195.807 22.0228V8.82861H193.092V18.6306C193.092 21.2101 191.665 23.1082 188.955 23.1082C186.073 23.1082 184.954 20.9375 184.954 18.5965V8.82861H182.238V19.0394C182.238 22.6701 184.409 25.5513 188.341 25.5513C190.512 25.5513 192.444 24.5342 193.223 22.8697" fill="black"/>
<path d="M171.555 8.35174C168.674 8.35174 166.703 9.94808 165.992 11.4714V0.554932H163.281V25.0745H165.924V22.3977C166.873 24.1595 168.771 25.5514 171.487 25.5514C176.203 25.5514 178.948 21.7844 178.948 16.937C178.948 12.0895 176.368 8.3566 171.555 8.3566V8.35174ZM171.083 23.1082C167.963 23.1082 165.929 20.5628 165.929 16.937C165.929 13.3111 167.929 10.7998 171.083 10.7998C174.237 10.7998 176.237 13.3452 176.237 16.937C176.237 20.5288 174.203 23.1082 171.083 23.1082Z" fill="black"/>
</svg>
