<svg width="359" height="32" viewBox="0 0 359 32" fill="none" xmlns="http://www.w3.org/2000/svg">
<path d="M88.9525 21.103C88.8211 21.0933 88.714 21.0884 88.607 21.0836C87.4876 21.0609 86.9279 20.485 86.9279 19.3558C86.9279 18.324 86.9279 17.2923 86.9279 16.2605C86.9279 13.9487 86.9279 11.559 86.923 9.2083C86.9084 6.05454 85.8328 3.72328 83.6379 2.08313C81.8955 0.778797 79.8125 0.150964 77.0724 0.102295C76.9653 0.102295 76.8631 0.102295 76.756 0.102295C73.3979 0.102295 70.7162 1.08541 68.5601 3.10518C66.993 4.57499 66.1218 6.36115 65.9612 8.41013L65.9417 8.64374H70.4874L70.5458 8.52206C70.6626 8.27872 70.7648 8.03537 70.8671 7.80176C71.0666 7.33454 71.2515 6.89651 71.5144 6.52663C72.5656 5.05195 74.5756 4.13697 76.7706 4.13697C78.4059 4.13697 79.8514 4.65286 80.8394 5.58245C81.3504 6.06427 81.7884 6.79431 82.0415 7.57788C82.2702 8.28845 82.28 8.78974 82.0756 9.1645C81.8663 9.55385 81.4039 9.83127 80.6252 10.0454C80.2115 10.1573 79.754 10.2206 79.389 10.2742C78.6006 10.3812 77.8121 10.4883 77.0237 10.5905C75.4663 10.7949 73.8602 11.0042 72.2833 11.2573C69.7817 11.6564 68.0296 12.5178 66.774 13.9779C65.6156 15.326 65.1095 17.1706 65.3869 19.0492C65.6887 21.0738 66.8275 22.8454 68.5115 23.9161C70.103 24.9284 71.967 25.42 74.2009 25.42C74.8579 25.42 75.5636 25.3811 76.3472 25.2983C78.3378 25.0891 80.0315 24.3298 81.3845 23.0498C81.769 22.6848 82.095 22.276 82.4406 21.8428C82.499 21.7698 82.5525 21.6968 82.6109 21.6287C82.6304 21.7796 82.6499 21.9256 82.6693 22.0667C82.8591 23.2494 83.4967 24.0913 84.5577 24.5586C85.5165 24.9869 86.4947 25.0404 87.3318 25.0404C87.6287 25.0404 87.9256 25.0307 88.2274 25.0258C88.5242 25.0161 88.8211 25.0112 89.1229 25.0112H89.3857V21.1274L88.9379 21.103H88.9525ZM81.5013 18.2121C80.4306 20.0859 78.7369 21.1177 76.3277 21.3707C75.8994 21.4145 75.5101 21.434 75.1305 21.434C74.1279 21.434 73.2567 21.2783 72.4634 20.9522C70.7064 20.2319 69.8353 18.6647 70.2976 17.0489C70.6821 15.6959 71.7723 15.2189 72.6191 15.0535C74.05 14.7761 75.5198 14.5619 76.9458 14.3526C77.5153 14.2699 78.0847 14.1872 78.6541 14.0996C79.8806 13.9097 81.073 13.6615 82.2021 12.7855C82.1924 13.1992 82.2021 13.6031 82.2021 13.9973C82.2264 15.4964 82.2459 16.9126 81.5013 18.2121Z" fill="white"/>
<path d="M33.4643 17.1755C31.9312 19.8231 31.4639 20.3146 29.9114 20.9425C29.0694 21.2831 28.1739 21.4535 27.2541 21.4535C26.4364 21.4535 25.5701 21.3172 24.6843 21.0447C22.2411 20.3 19.8125 17.4237 19.8807 13.8562H38.2679L38.2484 13.6226C38.2046 13.1846 38.1706 12.7514 38.1414 12.328C38.0684 11.4179 38.0002 10.5565 37.8688 9.69014C36.983 3.79144 32.7537 0.121778 26.8258 0.107178H26.7868C22.246 0.107178 18.844 2.05881 16.6734 5.89881C15.116 8.65835 14.639 11.7927 15.2182 15.4818C15.6611 18.3143 16.8486 20.6261 18.737 22.349C21.1169 24.5196 23.8424 25.6196 26.8404 25.6196C28.4757 25.6196 30.2083 25.2886 31.9896 24.6364C35.1433 23.483 37.1728 21.0252 38.0294 17.3215L38.0927 17.0587H33.5275L33.4643 17.1657V17.1755ZM26.6652 4.24406H26.7868C30.8945 4.24406 32.7586 7.7093 33.0262 10.0454H20.1678C20.5572 7.17394 22.869 4.30733 26.6652 4.24406Z" fill="white"/>
<path d="M51.7206 19.1028L44.3229 0.735012H39.125L49.2677 24.982H54.1443L64.2967 0.705811H59.0891L51.7206 19.1028Z" fill="white"/>
<path d="M114.854 0.501221H110.172V25.0013H114.854V0.501221Z" fill="white"/>
<path d="M0 4.27307V25.0013H4.69171V5.18318H13.5349V0.496338H3.83513C1.71802 0.496338 0 2.19003 0 4.27307Z" fill="white"/>
<path d="M92.9638 4.27307V25.0013H97.6556V5.18318H106.499V0.496338H96.7941C94.6819 0.496338 92.959 2.19003 92.959 4.27307" fill="white"/>
<path d="M131.758 11.3497L128.633 10.2011C126.735 9.55376 124.375 8.75559 124.375 6.85262C124.375 5.06646 126.365 4.13201 128.331 4.13201C130.75 4.13201 133.476 5.27087 133.865 8.46844L133.889 8.65825H138.459L138.435 8.41977C137.856 3.1489 134.128 0 128.468 0C123.124 0 119.668 2.72547 119.668 6.93536C119.668 11.6125 123.679 12.9509 126.896 14.0216L130.453 15.2529C132.945 16.1144 134.206 16.8347 134.206 18.397C134.206 20.9716 131.845 21.5118 129.864 21.5118C126.857 21.5118 123.747 19.9203 123.747 17.2581V17.0439H119.143L119.157 17.2727C119.474 22.31 123.586 25.5659 129.641 25.5659C135.695 25.5659 139.048 22.9573 139.048 18.5868C139.048 14.5472 136.371 12.873 131.748 11.3497" fill="white"/>
<path d="M142.723 22.1103C142.723 23.0837 143.044 23.8965 143.686 24.5487C144.329 25.2008 145.132 25.5269 146.091 25.5269C147.049 25.5269 147.857 25.2008 148.519 24.5487C149.181 23.8965 149.512 23.0837 149.512 22.1103C149.512 21.137 149.181 20.3777 148.519 19.7207C147.857 19.0685 147.049 18.7424 146.091 18.7424C145.132 18.7424 144.334 19.0685 143.686 19.7207C143.044 20.3728 142.723 21.171 142.723 22.1103Z" fill="white"/>
<path d="M357.98 17.6815C358.014 17.443 358.048 17.1072 358.048 16.7324C358.048 11.7487 355.304 8.35645 350.383 8.35645C346.28 8.35645 342.684 11.7487 342.684 16.9028C342.684 22.3634 346.382 25.5513 350.724 25.5513C354.486 25.5513 357.031 23.2784 357.946 20.4653L355.605 19.6185C354.963 21.5507 353.469 23.1129 350.724 23.1129C347.808 23.1129 345.467 20.9082 345.467 17.8226V17.6863H357.98V17.6815ZM350.417 10.7607C353.537 10.7607 355.133 12.7951 355.231 15.3745H345.531C345.701 12.9654 347.565 10.7607 350.417 10.7607Z" fill="white"/>
<path d="M336.757 22.8697V23.0059C336.757 23.8187 336.825 24.6996 336.927 25.0744H339.536C339.434 24.432 339.332 23.2785 339.332 22.0228V8.82861H336.616V18.6306C336.616 21.2101 335.19 23.1082 332.479 23.1082C329.598 23.1082 328.478 20.9375 328.478 18.5965V8.82861H325.768V19.0394C325.768 22.6701 327.938 25.5513 331.871 25.5513C334.041 25.5513 335.974 24.5342 336.757 22.8697Z" fill="white"/>
<path d="M321.587 0.554932H318.871V25.0745H321.587V0.554932Z" fill="white"/>
<path d="M314.656 22.3586V14.1529C314.656 10.9992 312.724 8.35156 308.11 8.35156C304.582 8.35156 301.939 10.4541 301.564 13.5397L304.144 14.1481C304.382 12.0796 305.774 10.6536 308.179 10.6536C310.758 10.6536 311.941 12.0115 311.941 13.8755C311.941 14.5861 311.668 15.0971 310.481 15.2675L306.105 15.9099C303.258 16.3187 301.258 17.9102 301.258 20.7573C301.258 23.2005 303.258 25.5415 306.616 25.5415C309.532 25.5415 311.298 23.9452 312.009 22.6262C312.009 23.8819 312.111 24.6947 312.213 25.0694H314.861C314.759 24.5633 314.656 23.7116 314.656 22.3586ZM311.946 18.2217C311.946 21.648 309.775 23.2395 306.962 23.2395C305.098 23.2395 303.978 21.9497 303.978 20.6259C303.978 19.0296 305.064 18.1487 306.66 17.9102L311.95 17.1315V18.2168L311.946 18.2217Z" fill="white"/>
<path d="M293.616 25.0744L300.094 8.82861H297.179L292.258 21.9206L287.377 8.82861H284.32L290.866 25.0744H293.616Z" fill="white"/>
<path d="M269.534 8.82854V11.1355C268.721 9.54397 266.989 8.35645 264.414 8.35645C260.005 8.35645 257.021 11.8509 257.021 16.3966C257.021 20.9423 260.039 24.3686 264.346 24.3686C267.028 24.3686 268.721 22.9426 269.5 21.3511V23.9598C269.5 27.318 268.108 29.5567 264.312 29.5567C261.63 29.5567 259.869 27.7609 259.596 25.3517L256.982 25.999C257.357 29.4253 260.375 31.9999 264.307 31.9999C270.41 31.9999 272.211 27.829 272.211 23.8624V8.83827H269.529L269.534 8.82854ZM264.687 21.9205C261.703 21.9205 259.737 19.7499 259.737 16.3577C259.737 12.9654 261.703 10.7948 264.687 10.7948C267.67 10.7948 269.636 12.9654 269.636 16.3577C269.636 19.7499 267.67 21.9205 264.687 21.9205Z" fill="white"/>
<path d="M243.019 25.0743V15.5108C243.019 12.9313 244.48 10.7948 247.088 10.7948C250.038 10.7948 251.123 12.7269 251.123 15.0679V25.0743H253.839V14.664C253.839 11.1355 251.941 8.35645 248.037 8.35645C245.867 8.35645 244.003 9.37363 242.951 11.2717V8.82854H240.309V25.0743H243.024H243.019Z" fill="white"/>
<path d="M232.596 2.41889C232.596 3.53829 233.511 4.45327 234.63 4.45327C235.749 4.45327 236.664 3.53829 236.664 2.41889C236.664 1.2995 235.749 0.384521 234.63 0.384521C233.511 0.384521 232.596 1.2995 232.596 2.41889Z" fill="white"/>
<path d="M235.987 8.82861H233.271V25.0744H235.987V8.82861Z" fill="white"/>
<path d="M228.877 22.0229V0.554932H226.166V11.4422C225.621 10.0844 224.03 8.3566 220.91 8.3566C216.398 8.3566 213.381 12.2209 213.381 16.937C213.381 21.653 216.228 25.5514 220.91 25.5514C223.689 25.5514 225.524 23.8918 226.234 22.2955V22.7383C226.234 23.7896 226.303 24.7046 226.405 25.0793H229.052C228.95 24.7046 228.882 23.6533 228.882 22.0278L228.877 22.0229ZM221.144 23.1082C218.058 23.1082 216.092 20.5628 216.092 16.937C216.092 13.3111 218.058 10.7998 221.144 10.7998C224.229 10.7998 226.23 13.3452 226.23 16.937C226.23 20.5288 224.195 23.1082 221.144 23.1082Z" fill="white"/>
<path d="M209.94 0.554932H207.225V25.0745H209.94V0.554932Z" fill="white"/>
<path d="M199.48 2.41889C199.48 3.53829 200.395 4.45327 201.515 4.45327C202.634 4.45327 203.549 3.53829 203.549 2.41889C203.549 1.2995 202.634 0.384521 201.515 0.384521C200.395 0.384521 199.48 1.2995 199.48 2.41889Z" fill="white"/>
<path d="M202.873 8.82861H200.162V25.0744H202.873V8.82861Z" fill="white"/>
<path d="M193.226 22.8697V23.0059C193.226 23.8187 193.294 24.6996 193.396 25.0744H196.01C195.907 24.432 195.805 23.2785 195.805 22.0228V8.82861H193.09V18.6306C193.09 21.2101 191.664 23.1082 188.953 23.1082C186.071 23.1082 184.952 20.9375 184.952 18.5965V8.82861H182.236V19.0394C182.236 22.6701 184.407 25.5513 188.339 25.5513C190.51 25.5513 192.442 24.5342 193.221 22.8697" fill="white"/>
<path d="M171.555 8.35174C168.674 8.35174 166.703 9.94808 165.992 11.4714V0.554932H163.281V25.0745H165.924V22.3977C166.873 24.1595 168.771 25.5514 171.487 25.5514C176.203 25.5514 178.948 21.7844 178.948 16.937C178.948 12.0895 176.368 8.3566 171.555 8.3566V8.35174ZM171.083 23.1082C167.963 23.1082 165.929 20.5628 165.929 16.937C165.929 13.3111 167.929 10.7998 171.083 10.7998C174.237 10.7998 176.237 13.3452 176.237 16.937C176.237 20.5288 174.203 23.1082 171.083 23.1082Z" fill="white"/>
</svg>
