<svg width="200" height="199" viewBox="0 0 200 199" fill="none" xmlns="http://www.w3.org/2000/svg">
<g clip-path="url(#clip0_948_26860)">
<path d="M139.434 0.474121C216.254 0.474121 278.526 62.7206 278.526 139.503C278.526 216.286 216.254 278.532 139.434 278.532" stroke="url(#paint0_linear_948_26860)" stroke-miterlimit="10"/>
<path d="M139.441 0.474121C213.247 0.474121 273.08 62.7206 273.08 139.503C273.08 216.286 213.247 278.532 139.441 278.532" stroke="url(#paint1_linear_948_26860)" stroke-miterlimit="10"/>
<path d="M139.441 0.474121C210.233 0.474121 267.625 62.7206 267.625 139.503C267.625 216.286 210.233 278.532 139.441 278.532" stroke="url(#paint2_linear_948_26860)" stroke-miterlimit="10"/>
<path d="M139.445 0.474121C207.228 0.474121 262.175 62.7206 262.175 139.503C262.175 216.286 207.228 278.532 139.445 278.532" stroke="url(#paint3_linear_948_26860)" stroke-miterlimit="10"/>
<path d="M139.445 0.474121C204.214 0.474121 256.721 62.7206 256.721 139.503C256.721 216.286 204.214 278.532 139.445 278.532" stroke="url(#paint4_linear_948_26860)" stroke-miterlimit="10"/>
<path d="M139.445 0.474121C201.199 0.474121 251.267 62.7206 251.267 139.503C251.267 216.286 201.205 278.532 139.445 278.532" stroke="url(#paint5_linear_948_26860)" stroke-miterlimit="10"/>
<path d="M139.453 0.474121C198.198 0.474121 245.82 62.7206 245.82 139.503C245.82 216.286 198.198 278.532 139.453 278.532" stroke="url(#paint6_linear_948_26860)" stroke-miterlimit="10"/>
<path d="M139.453 0.474121C195.184 0.474121 240.366 62.7206 240.366 139.503C240.366 216.286 195.19 278.532 139.453 278.532" stroke="url(#paint7_linear_948_26860)" stroke-miterlimit="10"/>
<path d="M139.457 0.474121C192.173 0.474121 234.916 62.7206 234.916 139.503C234.916 216.286 192.179 278.532 139.457 278.532" stroke="url(#paint8_linear_948_26860)" stroke-miterlimit="10"/>
<path d="M139.457 0.474121C189.164 0.474121 229.455 62.7206 229.455 139.503C229.455 216.286 189.158 278.532 139.457 278.532" stroke="url(#paint9_linear_948_26860)" stroke-miterlimit="10"/>
<path d="M139.457 0.474121C186.15 0.474121 224.001 62.7206 224.001 139.503C224.001 216.286 186.15 278.532 139.457 278.532" stroke="url(#paint10_linear_948_26860)" stroke-miterlimit="10"/>
<path d="M139.465 0.474121C183.143 0.474121 218.554 62.7206 218.554 139.503C218.554 216.286 183.143 278.532 139.465 278.532" stroke="url(#paint11_linear_948_26860)" stroke-miterlimit="10"/>
<path d="M139.465 0.474121C180.135 0.474121 213.1 62.7206 213.1 139.503C213.1 216.286 180.135 278.532 139.465 278.532" stroke="url(#paint12_linear_948_26860)" stroke-miterlimit="10"/>
<path d="M139.473 0.474121C177.128 0.474121 207.654 62.7206 207.654 139.503C207.654 216.286 177.128 278.532 139.473 278.532" stroke="url(#paint13_linear_948_26860)" stroke-miterlimit="10"/>
<path d="M139.473 0.474121C174.119 0.474121 202.199 62.7206 202.199 139.503C202.199 216.286 174.113 278.532 139.473 278.532" stroke="url(#paint14_linear_948_26860)" stroke-miterlimit="10"/>
<path d="M139.473 0.474121C171.105 0.474121 196.745 62.7206 196.745 139.503C196.745 216.286 171.105 278.532 139.473 278.532" stroke="url(#paint15_linear_948_26860)" stroke-miterlimit="10"/>
<path d="M139.477 0.474121C168.094 0.474121 191.295 62.7206 191.295 139.503C191.295 216.286 168.094 278.532 139.477 278.532" stroke="url(#paint16_linear_948_26860)" stroke-miterlimit="10"/>
<path d="M139.477 0.474121C165.086 0.474121 185.841 62.7206 185.841 139.503C185.841 216.286 165.086 278.532 139.477 278.532" stroke="url(#paint17_linear_948_26860)" stroke-miterlimit="10"/>
<path d="M139.484 0.474121C162.079 0.474121 180.394 62.7206 180.394 139.503C180.394 216.286 162.079 278.532 139.484 278.532" stroke="url(#paint18_linear_948_26860)" stroke-miterlimit="10"/>
<path d="M139.484 0.474121C159.064 0.474121 174.94 62.7206 174.94 139.503C174.94 216.286 159.064 278.532 139.484 278.532" stroke="url(#paint19_linear_948_26860)" stroke-miterlimit="10"/>
<path d="M139.492 0.474121C156.063 0.474121 169.494 62.7206 169.494 139.503C169.494 216.286 156.063 278.532 139.492 278.532" stroke="url(#paint20_linear_948_26860)" stroke-miterlimit="10"/>
<path d="M139.492 0.474121C153.049 0.474121 164.039 62.7206 164.039 139.503C164.039 216.286 153.049 278.532 139.492 278.532" stroke="url(#paint21_linear_948_26860)" stroke-miterlimit="10"/>
<path d="M139.492 0.474121C150.034 0.474121 158.585 62.7206 158.585 139.503C158.585 216.286 150.04 278.532 139.492 278.532" stroke="url(#paint22_linear_948_26860)" stroke-miterlimit="10"/>
<path d="M139.496 0.474121C147.03 0.474121 153.135 62.7206 153.135 139.503C153.135 216.286 147.03 278.532 139.496 278.532" stroke="url(#paint23_linear_948_26860)" stroke-miterlimit="10"/>
<path d="M139.496 0.474121C144.015 0.474121 147.681 62.7206 147.681 139.503C147.681 216.286 144.015 278.532 139.496 278.532" stroke="url(#paint24_linear_948_26860)" stroke-miterlimit="10"/>
<path d="M139.504 0.474121C141.008 0.474121 142.234 62.7206 142.234 139.503C142.234 216.286 141.014 278.532 139.504 278.532" stroke="url(#paint25_linear_948_26860)" stroke-miterlimit="10"/>
<path d="M139.504 0.474121C138 0.474121 136.773 62.7206 136.773 139.503C136.773 216.286 137.993 278.532 139.504 278.532" stroke="url(#paint26_linear_948_26860)" stroke-miterlimit="10"/>
<path d="M139.505 0.474121C134.986 0.474121 131.32 62.7206 131.32 139.503C131.32 216.286 134.986 278.532 139.505 278.532" stroke="url(#paint27_linear_948_26860)" stroke-miterlimit="10"/>
<path d="M139.51 0.474121C131.976 0.474121 125.871 62.7206 125.871 139.503C125.871 216.286 131.976 278.532 139.51 278.532" stroke="url(#paint28_linear_948_26860)" stroke-miterlimit="10"/>
<path d="M139.511 0.474121C128.969 0.474121 120.418 62.7206 120.418 139.503C120.418 216.286 128.963 278.532 139.511 278.532" stroke="url(#paint29_linear_948_26860)" stroke-miterlimit="10"/>
<path d="M139.516 0.474121C125.959 0.474121 114.969 62.7206 114.969 139.503C114.969 216.286 125.959 278.532 139.516 278.532" stroke="url(#paint30_linear_948_26860)" stroke-miterlimit="10"/>
<path d="M139.517 0.474121C122.946 0.474121 109.516 62.7206 109.516 139.503C109.516 216.286 122.946 278.532 139.517 278.532" stroke="url(#paint31_linear_948_26860)" stroke-miterlimit="10"/>
<path d="M139.514 0.474121C119.935 0.474121 104.059 62.7206 104.059 139.503C104.059 216.286 119.935 278.532 139.514 278.532" stroke="url(#paint32_linear_948_26860)" stroke-miterlimit="10"/>
<path d="M139.523 0.474121C116.929 0.474121 98.6133 62.7206 98.6133 139.503C98.6133 216.286 116.929 278.532 139.523 278.532" stroke="url(#paint33_linear_948_26860)" stroke-miterlimit="10"/>
<path d="M139.52 0.474121C113.911 0.474121 93.1562 62.7206 93.1562 139.503C93.1562 216.286 113.911 278.532 139.52 278.532" stroke="url(#paint34_linear_948_26860)" stroke-miterlimit="10"/>
<path d="M139.529 0.474121C110.912 0.474121 87.7109 62.7206 87.7109 139.503C87.7109 216.286 110.912 278.532 139.529 278.532" stroke="url(#paint35_linear_948_26860)" stroke-miterlimit="10"/>
<path d="M139.526 0.474121C107.894 0.474121 82.2539 62.7206 82.2539 139.503C82.2539 216.286 107.894 278.532 139.526 278.532" stroke="url(#paint36_linear_948_26860)" stroke-miterlimit="10"/>
<path d="M139.528 0.474121C104.881 0.474121 76.8008 62.7206 76.8008 139.503C76.8008 216.286 104.887 278.532 139.528 278.532" stroke="url(#paint37_linear_948_26860)" stroke-miterlimit="10"/>
<path d="M139.537 0.474121C101.881 0.474121 71.3555 62.7206 71.3555 139.503C71.3555 216.286 101.881 278.532 139.537 278.532" stroke="url(#paint38_linear_948_26860)" stroke-miterlimit="10"/>
<path d="M139.534 0.474121C98.864 0.474121 65.8984 62.7206 65.8984 139.503C65.8984 216.286 98.864 278.532 139.534 278.532" stroke="url(#paint39_linear_948_26860)" stroke-miterlimit="10"/>
<path d="M139.543 0.474121C95.8645 0.474121 60.4531 62.7206 60.4531 139.503C60.4531 216.286 95.8645 278.532 139.543 278.532" stroke="url(#paint40_linear_948_26860)" stroke-miterlimit="10"/>
<path d="M139.54 0.474121C92.8471 0.474121 54.9961 62.7206 54.9961 139.503C54.9961 216.286 92.8471 278.532 139.54 278.532" stroke="url(#paint41_linear_948_26860)" stroke-miterlimit="10"/>
<path d="M139.541 0.474121C89.8335 0.474121 49.543 62.7206 49.543 139.503C49.543 216.286 89.8398 278.532 139.541 278.532" stroke="url(#paint42_linear_948_26860)" stroke-miterlimit="10"/>
<path d="M139.548 0.474121C86.8326 0.474121 44.0898 62.7206 44.0898 139.503C44.0898 216.286 86.8262 278.532 139.548 278.532" stroke="url(#paint43_linear_948_26860)" stroke-miterlimit="10"/>
<path d="M139.546 0.474121C83.8151 0.474121 38.6328 62.7206 38.6328 139.503C38.6328 216.286 83.8088 278.532 139.546 278.532" stroke="url(#paint44_linear_948_26860)" stroke-miterlimit="10"/>
<path d="M139.554 0.474121C80.8093 0.474121 33.1875 62.7206 33.1875 139.503C33.1875 216.286 80.8093 278.532 139.554 278.532" stroke="url(#paint45_linear_948_26860)" stroke-miterlimit="10"/>
<path d="M139.556 0.474121C77.8021 0.474121 27.7344 62.7206 27.7344 139.503C27.7344 216.286 77.7957 278.532 139.556 278.532" stroke="url(#paint46_linear_948_26860)" stroke-miterlimit="10"/>
<path d="M139.553 0.474121C74.7846 0.474121 22.2773 62.7206 22.2773 139.503C22.2773 216.286 74.7846 278.532 139.553 278.532" stroke="url(#paint47_linear_948_26860)" stroke-miterlimit="10"/>
<path d="M139.562 0.474121C71.7788 0.474121 16.832 62.7206 16.832 139.503C16.832 216.286 71.7788 278.532 139.562 278.532" stroke="url(#paint48_linear_948_26860)" stroke-miterlimit="10"/>
<path d="M139.559 0.474121C68.7677 0.474121 11.375 62.7206 11.375 139.503C11.375 216.286 68.7677 278.532 139.559 278.532" stroke="url(#paint49_linear_948_26860)" stroke-miterlimit="10"/>
<path d="M139.568 0.474121C65.7619 0.474121 5.92969 62.7206 5.92969 139.503C5.92969 216.286 65.7619 278.532 139.568 278.532" stroke="url(#paint50_linear_948_26860)" stroke-miterlimit="10"/>
<path d="M139.565 0.474121C62.7444 0.474121 0.472656 62.7206 0.472656 139.503C0.472656 216.286 62.7444 278.532 139.565 278.532" stroke="url(#paint51_linear_948_26860)" stroke-miterlimit="10"/>
</g>
<defs>
<linearGradient id="paint0_linear_948_26860" x1="96.0462" y1="119.209" x2="272.061" y2="183.27" gradientUnits="userSpaceOnUse">
<stop stop-color="#708E77"/>
<stop offset="0.28" stop-color="#4D725C"/>
<stop offset="0.56" stop-color="#315C47"/>
<stop offset="0.81" stop-color="#214E3A"/>
<stop offset="1" stop-color="#1B4A36"/>
</linearGradient>
<linearGradient id="paint1_linear_948_26860" x1="95.9466" y1="119.507" x2="267.442" y2="181.924" gradientUnits="userSpaceOnUse">
<stop stop-color="#708E77"/>
<stop offset="0.28" stop-color="#4D725C"/>
<stop offset="0.56" stop-color="#315C47"/>
<stop offset="0.81" stop-color="#214E3A"/>
<stop offset="1" stop-color="#1B4A36"/>
</linearGradient>
<linearGradient id="paint2_linear_948_26860" x1="95.8455" y1="119.791" x2="262.847" y2="180.571" gradientUnits="userSpaceOnUse">
<stop stop-color="#708E77"/>
<stop offset="0.28" stop-color="#4D725C"/>
<stop offset="0.56" stop-color="#315C47"/>
<stop offset="0.81" stop-color="#214E3A"/>
<stop offset="1" stop-color="#1B4A36"/>
</linearGradient>
<linearGradient id="paint3_linear_948_26860" x1="95.742" y1="120.063" x2="258.275" y2="179.219" gradientUnits="userSpaceOnUse">
<stop stop-color="#708E77"/>
<stop offset="0.28" stop-color="#4D725C"/>
<stop offset="0.56" stop-color="#315C47"/>
<stop offset="0.81" stop-color="#214E3A"/>
<stop offset="1" stop-color="#1B4A36"/>
</linearGradient>
<linearGradient id="paint4_linear_948_26860" x1="95.6535" y1="120.322" x2="253.744" y2="177.866" gradientUnits="userSpaceOnUse">
<stop stop-color="#708E77"/>
<stop offset="0.28" stop-color="#4D725C"/>
<stop offset="0.56" stop-color="#315C47"/>
<stop offset="0.81" stop-color="#214E3A"/>
<stop offset="1" stop-color="#1B4A36"/>
</linearGradient>
<linearGradient id="paint5_linear_948_26860" x1="95.565" y1="120.575" x2="249.25" y2="176.514" gradientUnits="userSpaceOnUse">
<stop stop-color="#708E77"/>
<stop offset="0.28" stop-color="#4D725C"/>
<stop offset="0.56" stop-color="#315C47"/>
<stop offset="0.81" stop-color="#214E3A"/>
<stop offset="1" stop-color="#1B4A36"/>
</linearGradient>
<linearGradient id="paint6_linear_948_26860" x1="95.478" y1="120.821" x2="244.79" y2="175.161" gradientUnits="userSpaceOnUse">
<stop stop-color="#708E77"/>
<stop offset="0.28" stop-color="#4D725C"/>
<stop offset="0.56" stop-color="#315C47"/>
<stop offset="0.81" stop-color="#214E3A"/>
<stop offset="1" stop-color="#1B4A36"/>
</linearGradient>
<linearGradient id="paint7_linear_948_26860" x1="95.3958" y1="121.049" x2="240.379" y2="173.815" gradientUnits="userSpaceOnUse">
<stop stop-color="#708E77"/>
<stop offset="0.28" stop-color="#4D725C"/>
<stop offset="0.56" stop-color="#315C47"/>
<stop offset="0.81" stop-color="#214E3A"/>
<stop offset="1" stop-color="#1B4A36"/>
</linearGradient>
<linearGradient id="paint8_linear_948_26860" x1="95.3176" y1="121.27" x2="236.015" y2="172.475" gradientUnits="userSpaceOnUse">
<stop stop-color="#708E77"/>
<stop offset="0.28" stop-color="#4D725C"/>
<stop offset="0.56" stop-color="#315C47"/>
<stop offset="0.81" stop-color="#214E3A"/>
<stop offset="1" stop-color="#1B4A36"/>
</linearGradient>
<linearGradient id="paint9_linear_948_26860" x1="95.2417" y1="121.472" x2="231.711" y2="171.148" gradientUnits="userSpaceOnUse">
<stop stop-color="#708E77"/>
<stop offset="0.28" stop-color="#4D725C"/>
<stop offset="0.56" stop-color="#315C47"/>
<stop offset="0.81" stop-color="#214E3A"/>
<stop offset="1" stop-color="#1B4A36"/>
</linearGradient>
<linearGradient id="paint10_linear_948_26860" x1="95.1785" y1="121.668" x2="227.477" y2="169.821" gradientUnits="userSpaceOnUse">
<stop stop-color="#708E77"/>
<stop offset="0.28" stop-color="#4D725C"/>
<stop offset="0.56" stop-color="#315C47"/>
<stop offset="0.81" stop-color="#214E3A"/>
<stop offset="1" stop-color="#1B4A36"/>
</linearGradient>
<linearGradient id="paint11_linear_948_26860" x1="95.1105" y1="121.858" x2="223.313" y2="168.519" gradientUnits="userSpaceOnUse">
<stop stop-color="#708E77"/>
<stop offset="0.28" stop-color="#4D725C"/>
<stop offset="0.56" stop-color="#315C47"/>
<stop offset="0.81" stop-color="#214E3A"/>
<stop offset="1" stop-color="#1B4A36"/>
</linearGradient>
<linearGradient id="paint12_linear_948_26860" x1="95.0536" y1="122.028" x2="219.237" y2="167.229" gradientUnits="userSpaceOnUse">
<stop stop-color="#708E77"/>
<stop offset="0.28" stop-color="#4D725C"/>
<stop offset="0.56" stop-color="#315C47"/>
<stop offset="0.81" stop-color="#214E3A"/>
<stop offset="1" stop-color="#1B4A36"/>
</linearGradient>
<linearGradient id="paint13_linear_948_26860" x1="94.9982" y1="122.186" x2="215.257" y2="165.959" gradientUnits="userSpaceOnUse">
<stop stop-color="#708E77"/>
<stop offset="0.28" stop-color="#4D725C"/>
<stop offset="0.56" stop-color="#315C47"/>
<stop offset="0.81" stop-color="#214E3A"/>
<stop offset="1" stop-color="#1B4A36"/>
</linearGradient>
<linearGradient id="paint14_linear_948_26860" x1="94.9477" y1="122.338" x2="211.395" y2="164.72" gradientUnits="userSpaceOnUse">
<stop stop-color="#708E77"/>
<stop offset="0.28" stop-color="#4D725C"/>
<stop offset="0.56" stop-color="#315C47"/>
<stop offset="0.81" stop-color="#214E3A"/>
<stop offset="1" stop-color="#1B4A36"/>
</linearGradient>
<linearGradient id="paint15_linear_948_26860" x1="94.8971" y1="122.477" x2="207.666" y2="163.52" gradientUnits="userSpaceOnUse">
<stop stop-color="#708E77"/>
<stop offset="0.28" stop-color="#4D725C"/>
<stop offset="0.56" stop-color="#315C47"/>
<stop offset="0.81" stop-color="#214E3A"/>
<stop offset="1" stop-color="#1B4A36"/>
</linearGradient>
<linearGradient id="paint16_linear_948_26860" x1="94.8505" y1="122.597" x2="204.087" y2="162.357" gradientUnits="userSpaceOnUse">
<stop stop-color="#708E77"/>
<stop offset="0.28" stop-color="#4D725C"/>
<stop offset="0.56" stop-color="#315C47"/>
<stop offset="0.81" stop-color="#214E3A"/>
<stop offset="1" stop-color="#1B4A36"/>
</linearGradient>
<linearGradient id="paint17_linear_948_26860" x1="94.8126" y1="122.711" x2="200.699" y2="161.251" gradientUnits="userSpaceOnUse">
<stop stop-color="#708E77"/>
<stop offset="0.28" stop-color="#4D725C"/>
<stop offset="0.56" stop-color="#315C47"/>
<stop offset="0.81" stop-color="#214E3A"/>
<stop offset="1" stop-color="#1B4A36"/>
</linearGradient>
<linearGradient id="paint18_linear_948_26860" x1="94.7824" y1="122.812" x2="197.522" y2="160.208" gradientUnits="userSpaceOnUse">
<stop stop-color="#708E77"/>
<stop offset="0.28" stop-color="#4D725C"/>
<stop offset="0.56" stop-color="#315C47"/>
<stop offset="0.81" stop-color="#214E3A"/>
<stop offset="1" stop-color="#1B4A36"/>
</linearGradient>
<linearGradient id="paint19_linear_948_26860" x1="94.7509" y1="122.9" x2="194.595" y2="159.241" gradientUnits="userSpaceOnUse">
<stop stop-color="#708E77"/>
<stop offset="0.28" stop-color="#4D725C"/>
<stop offset="0.56" stop-color="#315C47"/>
<stop offset="0.81" stop-color="#214E3A"/>
<stop offset="1" stop-color="#1B4A36"/>
</linearGradient>
<linearGradient id="paint20_linear_948_26860" x1="94.7271" y1="122.976" x2="191.961" y2="158.369" gradientUnits="userSpaceOnUse">
<stop stop-color="#708E77"/>
<stop offset="0.28" stop-color="#4D725C"/>
<stop offset="0.56" stop-color="#315C47"/>
<stop offset="0.81" stop-color="#214E3A"/>
<stop offset="1" stop-color="#1B4A36"/>
</linearGradient>
<linearGradient id="paint21_linear_948_26860" x1="94.7081" y1="123.039" x2="189.661" y2="157.604" gradientUnits="userSpaceOnUse">
<stop stop-color="#708E77"/>
<stop offset="0.28" stop-color="#4D725C"/>
<stop offset="0.56" stop-color="#315C47"/>
<stop offset="0.81" stop-color="#214E3A"/>
<stop offset="1" stop-color="#1B4A36"/>
</linearGradient>
<linearGradient id="paint22_linear_948_26860" x1="94.6955" y1="123.09" x2="187.74" y2="156.959" gradientUnits="userSpaceOnUse">
<stop stop-color="#708E77"/>
<stop offset="0.28" stop-color="#4D725C"/>
<stop offset="0.56" stop-color="#315C47"/>
<stop offset="0.81" stop-color="#214E3A"/>
<stop offset="1" stop-color="#1B4A36"/>
</linearGradient>
<linearGradient id="paint23_linear_948_26860" x1="94.6804" y1="123.128" x2="186.246" y2="156.46" gradientUnits="userSpaceOnUse">
<stop stop-color="#708E77"/>
<stop offset="0.28" stop-color="#4D725C"/>
<stop offset="0.56" stop-color="#315C47"/>
<stop offset="0.81" stop-color="#214E3A"/>
<stop offset="1" stop-color="#1B4A36"/>
</linearGradient>
<linearGradient id="paint24_linear_948_26860" x1="94.6741" y1="123.153" x2="185.222" y2="156.112" gradientUnits="userSpaceOnUse">
<stop stop-color="#708E77"/>
<stop offset="0.28" stop-color="#4D725C"/>
<stop offset="0.56" stop-color="#315C47"/>
<stop offset="0.81" stop-color="#214E3A"/>
<stop offset="1" stop-color="#1B4A36"/>
</linearGradient>
<linearGradient id="paint25_linear_948_26860" x1="94.6692" y1="123.166" x2="184.699" y2="155.936" gradientUnits="userSpaceOnUse">
<stop stop-color="#708E77"/>
<stop offset="0.28" stop-color="#4D725C"/>
<stop offset="0.56" stop-color="#315C47"/>
<stop offset="0.81" stop-color="#214E3A"/>
<stop offset="1" stop-color="#1B4A36"/>
</linearGradient>
<linearGradient id="paint26_linear_948_26860" x1="94.3026" y1="123.065" x2="184.332" y2="155.834" gradientUnits="userSpaceOnUse">
<stop stop-color="#708E77"/>
<stop offset="0.28" stop-color="#4D725C"/>
<stop offset="0.56" stop-color="#315C47"/>
<stop offset="0.81" stop-color="#214E3A"/>
<stop offset="1" stop-color="#1B4A36"/>
</linearGradient>
<linearGradient id="paint27_linear_948_26860" x1="93.779" y1="122.888" x2="184.333" y2="155.847" gradientUnits="userSpaceOnUse">
<stop stop-color="#708E77"/>
<stop offset="0.28" stop-color="#4D725C"/>
<stop offset="0.56" stop-color="#315C47"/>
<stop offset="0.81" stop-color="#214E3A"/>
<stop offset="1" stop-color="#1B4A36"/>
</linearGradient>
<linearGradient id="paint28_linear_948_26860" x1="92.7539" y1="122.546" x2="184.326" y2="155.872" gradientUnits="userSpaceOnUse">
<stop stop-color="#708E77"/>
<stop offset="0.28" stop-color="#4D725C"/>
<stop offset="0.56" stop-color="#315C47"/>
<stop offset="0.81" stop-color="#214E3A"/>
<stop offset="1" stop-color="#1B4A36"/>
</linearGradient>
<linearGradient id="paint29_linear_948_26860" x1="91.2634" y1="122.047" x2="184.314" y2="155.91" gradientUnits="userSpaceOnUse">
<stop stop-color="#708E77"/>
<stop offset="0.28" stop-color="#4D725C"/>
<stop offset="0.56" stop-color="#315C47"/>
<stop offset="0.81" stop-color="#214E3A"/>
<stop offset="1" stop-color="#1B4A36"/>
</linearGradient>
<linearGradient id="paint30_linear_948_26860" x1="89.3408" y1="121.403" x2="184.294" y2="155.961" gradientUnits="userSpaceOnUse">
<stop stop-color="#708E77"/>
<stop offset="0.28" stop-color="#4D725C"/>
<stop offset="0.56" stop-color="#315C47"/>
<stop offset="0.81" stop-color="#214E3A"/>
<stop offset="1" stop-color="#1B4A36"/>
</linearGradient>
<linearGradient id="paint31_linear_948_26860" x1="87.0414" y1="120.638" x2="184.276" y2="156.024" gradientUnits="userSpaceOnUse">
<stop stop-color="#708E77"/>
<stop offset="0.28" stop-color="#4D725C"/>
<stop offset="0.56" stop-color="#315C47"/>
<stop offset="0.81" stop-color="#214E3A"/>
<stop offset="1" stop-color="#1B4A36"/>
</linearGradient>
<linearGradient id="paint32_linear_948_26860" x1="84.4031" y1="119.759" x2="184.248" y2="156.1" gradientUnits="userSpaceOnUse">
<stop stop-color="#708E77"/>
<stop offset="0.28" stop-color="#4D725C"/>
<stop offset="0.56" stop-color="#315C47"/>
<stop offset="0.81" stop-color="#214E3A"/>
<stop offset="1" stop-color="#1B4A36"/>
</linearGradient>
<linearGradient id="paint33_linear_948_26860" x1="81.4795" y1="118.792" x2="184.219" y2="156.188" gradientUnits="userSpaceOnUse">
<stop stop-color="#708E77"/>
<stop offset="0.28" stop-color="#4D725C"/>
<stop offset="0.56" stop-color="#315C47"/>
<stop offset="0.81" stop-color="#214E3A"/>
<stop offset="1" stop-color="#1B4A36"/>
</linearGradient>
<linearGradient id="paint34_linear_948_26860" x1="78.3041" y1="117.75" x2="184.184" y2="156.289" gradientUnits="userSpaceOnUse">
<stop stop-color="#708E77"/>
<stop offset="0.28" stop-color="#4D725C"/>
<stop offset="0.56" stop-color="#315C47"/>
<stop offset="0.81" stop-color="#214E3A"/>
<stop offset="1" stop-color="#1B4A36"/>
</linearGradient>
<linearGradient id="paint35_linear_948_26860" x1="74.9128" y1="116.644" x2="184.149" y2="156.403" gradientUnits="userSpaceOnUse">
<stop stop-color="#708E77"/>
<stop offset="0.28" stop-color="#4D725C"/>
<stop offset="0.56" stop-color="#315C47"/>
<stop offset="0.81" stop-color="#214E3A"/>
<stop offset="1" stop-color="#1B4A36"/>
</linearGradient>
<linearGradient id="paint36_linear_948_26860" x1="71.3391" y1="115.487" x2="184.102" y2="156.53" gradientUnits="userSpaceOnUse">
<stop stop-color="#708E77"/>
<stop offset="0.28" stop-color="#4D725C"/>
<stop offset="0.56" stop-color="#315C47"/>
<stop offset="0.81" stop-color="#214E3A"/>
<stop offset="1" stop-color="#1B4A36"/>
</linearGradient>
<linearGradient id="paint37_linear_948_26860" x1="67.6114" y1="114.28" x2="184.059" y2="156.662" gradientUnits="userSpaceOnUse">
<stop stop-color="#708E77"/>
<stop offset="0.28" stop-color="#4D725C"/>
<stop offset="0.56" stop-color="#315C47"/>
<stop offset="0.81" stop-color="#214E3A"/>
<stop offset="1" stop-color="#1B4A36"/>
</linearGradient>
<linearGradient id="paint38_linear_948_26860" x1="63.7461" y1="113.041" x2="184.011" y2="156.814" gradientUnits="userSpaceOnUse">
<stop stop-color="#708E77"/>
<stop offset="0.28" stop-color="#4D725C"/>
<stop offset="0.56" stop-color="#315C47"/>
<stop offset="0.81" stop-color="#214E3A"/>
<stop offset="1" stop-color="#1B4A36"/>
</linearGradient>
<linearGradient id="paint39_linear_948_26860" x1="59.768" y1="111.777" x2="183.951" y2="156.978" gradientUnits="userSpaceOnUse">
<stop stop-color="#708E77"/>
<stop offset="0.28" stop-color="#4D725C"/>
<stop offset="0.56" stop-color="#315C47"/>
<stop offset="0.81" stop-color="#214E3A"/>
<stop offset="1" stop-color="#1B4A36"/>
</linearGradient>
<linearGradient id="paint40_linear_948_26860" x1="55.6878" y1="110.488" x2="183.891" y2="157.149" gradientUnits="userSpaceOnUse">
<stop stop-color="#708E77"/>
<stop offset="0.28" stop-color="#4D725C"/>
<stop offset="0.56" stop-color="#315C47"/>
<stop offset="0.81" stop-color="#214E3A"/>
<stop offset="1" stop-color="#1B4A36"/>
</linearGradient>
<linearGradient id="paint41_linear_948_26860" x1="51.5264" y1="109.18" x2="183.825" y2="157.332" gradientUnits="userSpaceOnUse">
<stop stop-color="#708E77"/>
<stop offset="0.28" stop-color="#4D725C"/>
<stop offset="0.56" stop-color="#315C47"/>
<stop offset="0.81" stop-color="#214E3A"/>
<stop offset="1" stop-color="#1B4A36"/>
</linearGradient>
<linearGradient id="paint42_linear_948_26860" x1="47.2867" y1="107.859" x2="183.756" y2="157.528" gradientUnits="userSpaceOnUse">
<stop stop-color="#708E77"/>
<stop offset="0.28" stop-color="#4D725C"/>
<stop offset="0.56" stop-color="#315C47"/>
<stop offset="0.81" stop-color="#214E3A"/>
<stop offset="1" stop-color="#1B4A36"/>
</linearGradient>
<linearGradient id="paint43_linear_948_26860" x1="42.9838" y1="106.525" x2="183.681" y2="157.737" gradientUnits="userSpaceOnUse">
<stop stop-color="#708E77"/>
<stop offset="0.28" stop-color="#4D725C"/>
<stop offset="0.56" stop-color="#315C47"/>
<stop offset="0.81" stop-color="#214E3A"/>
<stop offset="1" stop-color="#1B4A36"/>
</linearGradient>
<linearGradient id="paint44_linear_948_26860" x1="38.6202" y1="105.185" x2="183.603" y2="157.958" gradientUnits="userSpaceOnUse">
<stop stop-color="#708E77"/>
<stop offset="0.28" stop-color="#4D725C"/>
<stop offset="0.56" stop-color="#315C47"/>
<stop offset="0.81" stop-color="#214E3A"/>
<stop offset="1" stop-color="#1B4A36"/>
</linearGradient>
<linearGradient id="paint45_linear_948_26860" x1="34.2114" y1="103.839" x2="183.523" y2="158.185" gradientUnits="userSpaceOnUse">
<stop stop-color="#708E77"/>
<stop offset="0.28" stop-color="#4D725C"/>
<stop offset="0.56" stop-color="#315C47"/>
<stop offset="0.81" stop-color="#214E3A"/>
<stop offset="1" stop-color="#1B4A36"/>
</linearGradient>
<linearGradient id="paint46_linear_948_26860" x1="29.7568" y1="102.487" x2="183.442" y2="158.426" gradientUnits="userSpaceOnUse">
<stop stop-color="#708E77"/>
<stop offset="0.28" stop-color="#4D725C"/>
<stop offset="0.56" stop-color="#315C47"/>
<stop offset="0.81" stop-color="#214E3A"/>
<stop offset="1" stop-color="#1B4A36"/>
</linearGradient>
<linearGradient id="paint47_linear_948_26860" x1="25.2541" y1="101.134" x2="183.351" y2="158.678" gradientUnits="userSpaceOnUse">
<stop stop-color="#708E77"/>
<stop offset="0.28" stop-color="#4D725C"/>
<stop offset="0.56" stop-color="#315C47"/>
<stop offset="0.81" stop-color="#214E3A"/>
<stop offset="1" stop-color="#1B4A36"/>
</linearGradient>
<linearGradient id="paint48_linear_948_26860" x1="20.7252" y1="99.7816" x2="183.259" y2="158.944" gradientUnits="userSpaceOnUse">
<stop stop-color="#708E77"/>
<stop offset="0.28" stop-color="#4D725C"/>
<stop offset="0.56" stop-color="#315C47"/>
<stop offset="0.81" stop-color="#214E3A"/>
<stop offset="1" stop-color="#1B4A36"/>
</linearGradient>
<linearGradient id="paint49_linear_948_26860" x1="16.1593" y1="98.4291" x2="183.161" y2="159.216" gradientUnits="userSpaceOnUse">
<stop stop-color="#708E77"/>
<stop offset="0.28" stop-color="#4D725C"/>
<stop offset="0.56" stop-color="#315C47"/>
<stop offset="0.81" stop-color="#214E3A"/>
<stop offset="1" stop-color="#1B4A36"/>
</linearGradient>
<linearGradient id="paint50_linear_948_26860" x1="11.5672" y1="97.0829" x2="183.063" y2="159.5" gradientUnits="userSpaceOnUse">
<stop stop-color="#708E77"/>
<stop offset="0.28" stop-color="#4D725C"/>
<stop offset="0.56" stop-color="#315C47"/>
<stop offset="0.81" stop-color="#214E3A"/>
<stop offset="1" stop-color="#1B4A36"/>
</linearGradient>
<linearGradient id="paint51_linear_948_26860" x1="6.9381" y1="95.7304" x2="182.952" y2="159.797" gradientUnits="userSpaceOnUse">
<stop stop-color="#708E77"/>
<stop offset="0.28" stop-color="#4D725C"/>
<stop offset="0.56" stop-color="#315C47"/>
<stop offset="0.81" stop-color="#214E3A"/>
<stop offset="1" stop-color="#1B4A36"/>
</linearGradient>
<clipPath id="clip0_948_26860">
<rect width="279" height="279" fill="white"/>
</clipPath>
</defs>
</svg>
