<svg width="651" height="336" viewBox="0 0 651 336" fill="none" xmlns="http://www.w3.org/2000/svg">
<g clip-path="url(#clip0_143_4285)">
<g clip-path="url(#clip1_143_4285)">
<path d="M407.805 1.38306C631.934 1.38306 813.615 182.991 813.615 407.009C813.615 631.028 631.934 812.636 407.805 812.636" stroke="url(#paint0_linear_143_4285)" stroke-width="2" stroke-miterlimit="10"/>
<path d="M407.824 1.38306C623.158 1.38306 797.722 182.991 797.722 407.009C797.722 631.028 623.158 812.636 407.824 812.636" stroke="url(#paint1_linear_143_4285)" stroke-width="2" stroke-miterlimit="10"/>
<path d="M407.824 1.38306C614.362 1.38306 781.809 182.991 781.809 407.009C781.809 631.028 614.362 812.636 407.824 812.636" stroke="url(#paint2_linear_143_4285)" stroke-width="2" stroke-miterlimit="10"/>
<path d="M407.844 1.38306C605.605 1.38306 765.915 182.991 765.915 407.009C765.915 631.028 605.605 812.636 407.844 812.636" stroke="url(#paint3_linear_143_4285)" stroke-width="2" stroke-miterlimit="10"/>
<path d="M407.844 1.38306C596.809 1.38306 750.002 182.991 750.002 407.009C750.002 631.028 596.809 812.636 407.844 812.636" stroke="url(#paint4_linear_143_4285)" stroke-width="2" stroke-miterlimit="10"/>
<path d="M407.844 1.38306C588.013 1.38306 734.089 182.991 734.089 407.009C734.089 631.028 588.032 812.636 407.844 812.636" stroke="url(#paint5_linear_143_4285)" stroke-width="2" stroke-miterlimit="10"/>
<path d="M407.863 1.38306C579.256 1.38306 718.196 182.991 718.196 407.009C718.196 631.028 579.256 812.636 407.863 812.636" stroke="url(#paint6_linear_143_4285)" stroke-width="2" stroke-miterlimit="10"/>
<path d="M407.863 1.38306C570.46 1.38306 702.283 182.991 702.283 407.009C702.283 631.028 570.479 812.636 407.863 812.636" stroke="url(#paint7_linear_143_4285)" stroke-width="2" stroke-miterlimit="10"/>
<path d="M407.879 1.38306C561.681 1.38306 686.385 182.991 686.385 407.009C686.385 631.028 561.699 812.636 407.879 812.636" stroke="url(#paint8_linear_143_4285)" stroke-width="2" stroke-miterlimit="10"/>
<path d="M407.879 1.38306C552.903 1.38306 670.454 182.991 670.454 407.009C670.454 631.028 552.885 812.636 407.879 812.636" stroke="url(#paint9_linear_143_4285)" stroke-width="2" stroke-miterlimit="10"/>
<path d="M407.879 1.38306C544.108 1.38306 654.54 182.991 654.54 407.009C654.54 631.028 544.108 812.636 407.879 812.636" stroke="url(#paint10_linear_143_4285)" stroke-width="2" stroke-miterlimit="10"/>
<path d="M407.898 1.38306C535.332 1.38306 638.647 182.991 638.647 407.009C638.647 631.028 535.332 812.636 407.898 812.636" stroke="url(#paint11_linear_143_4285)" stroke-width="2" stroke-miterlimit="10"/>
<path d="M407.898 1.38306C526.555 1.38306 622.734 182.991 622.734 407.009C622.734 631.028 526.555 812.636 407.898 812.636" stroke="url(#paint12_linear_143_4285)" stroke-width="2" stroke-miterlimit="10"/>
<path d="M407.918 1.38306C517.779 1.38306 606.84 182.991 606.84 407.009C606.84 631.028 517.779 812.636 407.918 812.636" stroke="url(#paint13_linear_143_4285)" stroke-width="2" stroke-miterlimit="10"/>
<path d="M407.918 1.38306C509.002 1.38306 590.927 182.991 590.927 407.009C590.927 631.028 508.983 812.636 407.918 812.636" stroke="url(#paint14_linear_143_4285)" stroke-width="2" stroke-miterlimit="10"/>
<path d="M407.918 1.38306C500.206 1.38306 575.014 182.991 575.014 407.009C575.014 631.028 500.206 812.636 407.918 812.636" stroke="url(#paint15_linear_143_4285)" stroke-width="2" stroke-miterlimit="10"/>
<path d="M407.934 1.38306C491.426 1.38306 559.117 182.991 559.117 407.009C559.117 631.028 491.426 812.636 407.934 812.636" stroke="url(#paint16_linear_143_4285)" stroke-width="2" stroke-miterlimit="10"/>
<path d="M407.934 1.38306C482.649 1.38306 543.204 182.991 543.204 407.009C543.204 631.028 482.649 812.636 407.934 812.636" stroke="url(#paint17_linear_143_4285)" stroke-width="2" stroke-miterlimit="10"/>
<path d="M407.953 1.38306C473.873 1.38306 527.31 182.991 527.31 407.009C527.31 631.028 473.873 812.636 407.953 812.636" stroke="url(#paint18_linear_143_4285)" stroke-width="2" stroke-miterlimit="10"/>
<path d="M407.953 1.38306C465.078 1.38306 511.397 182.991 511.397 407.009C511.397 631.028 465.078 812.636 407.953 812.636" stroke="url(#paint19_linear_143_4285)" stroke-width="2" stroke-miterlimit="10"/>
<path d="M407.973 1.38306C456.32 1.38306 495.504 182.991 495.504 407.009C495.504 631.028 456.32 812.636 407.973 812.636" stroke="url(#paint20_linear_143_4285)" stroke-width="2" stroke-miterlimit="10"/>
<path d="M407.973 1.38306C447.525 1.38306 479.591 182.991 479.591 407.009C479.591 631.028 447.525 812.636 407.973 812.636" stroke="url(#paint21_linear_143_4285)" stroke-width="2" stroke-miterlimit="10"/>
<path d="M407.973 1.38306C438.729 1.38306 463.678 182.991 463.678 407.009C463.678 631.028 438.748 812.636 407.973 812.636" stroke="url(#paint22_linear_143_4285)" stroke-width="2" stroke-miterlimit="10"/>
<path d="M407.992 1.38306C429.972 1.38306 447.784 182.991 447.784 407.009C447.784 631.028 429.972 812.636 407.992 812.636" stroke="url(#paint23_linear_143_4285)" stroke-width="2" stroke-miterlimit="10"/>
<path d="M407.992 1.38306C421.176 1.38306 431.871 182.991 431.871 407.009C431.871 631.028 421.176 812.636 407.992 812.636" stroke="url(#paint24_linear_143_4285)" stroke-width="2" stroke-miterlimit="10"/>
<path d="M408.008 1.38306C412.396 1.38306 415.974 182.991 415.974 407.009C415.974 631.028 412.415 812.636 408.008 812.636" stroke="url(#paint25_linear_143_4285)" stroke-width="2" stroke-miterlimit="10"/>
<path d="M408.009 1.38306C403.62 1.38306 400.043 182.991 400.043 407.009C400.043 631.028 403.602 812.636 408.009 812.636" stroke="url(#paint26_linear_143_4285)" stroke-width="2" stroke-miterlimit="10"/>
<path d="M408.008 1.38306C394.824 1.38306 384.129 182.991 384.129 407.009C384.129 631.028 394.824 812.636 408.008 812.636" stroke="url(#paint27_linear_143_4285)" stroke-width="2" stroke-miterlimit="10"/>
<path d="M408.026 1.38306C386.047 1.38306 368.234 182.991 368.234 407.009C368.234 631.028 386.047 812.636 408.026 812.636" stroke="url(#paint28_linear_143_4285)" stroke-width="2" stroke-miterlimit="10"/>
<path d="M408.029 1.38306C377.273 1.38306 352.324 182.991 352.324 407.009C352.324 631.028 377.254 812.636 408.029 812.636" stroke="url(#paint29_linear_143_4285)" stroke-width="2" stroke-miterlimit="10"/>
<path d="M408.048 1.38306C368.496 1.38306 336.43 182.991 336.43 407.009C336.43 631.028 368.496 812.636 408.048 812.636" stroke="url(#paint30_linear_143_4285)" stroke-width="2" stroke-miterlimit="10"/>
<path d="M408.047 1.38306C359.699 1.38306 320.516 182.991 320.516 407.009C320.516 631.028 359.699 812.636 408.047 812.636" stroke="url(#paint31_linear_143_4285)" stroke-width="2" stroke-miterlimit="10"/>
<path d="M408.046 1.38306C350.921 1.38306 304.602 182.991 304.602 407.009C304.602 631.028 350.921 812.636 408.046 812.636" stroke="url(#paint32_linear_143_4285)" stroke-width="2" stroke-miterlimit="10"/>
<path d="M408.064 1.38306C342.144 1.38306 288.707 182.991 288.707 407.009C288.707 631.028 342.144 812.636 408.064 812.636" stroke="url(#paint33_linear_143_4285)" stroke-width="2" stroke-miterlimit="10"/>
<path d="M408.063 1.38306C333.347 1.38306 272.793 182.991 272.793 407.009C272.793 631.028 333.347 812.636 408.063 812.636" stroke="url(#paint34_linear_143_4285)" stroke-width="2" stroke-miterlimit="10"/>
<path d="M408.082 1.38306C324.589 1.38306 256.898 182.991 256.898 407.009C256.898 631.028 324.589 812.636 408.082 812.636" stroke="url(#paint35_linear_143_4285)" stroke-width="2" stroke-miterlimit="10"/>
<path d="M408.085 1.38306C315.796 1.38306 240.988 182.991 240.988 407.009C240.988 631.028 315.796 812.636 408.085 812.636" stroke="url(#paint36_linear_143_4285)" stroke-width="2" stroke-miterlimit="10"/>
<path d="M408.084 1.38306C307 1.38306 225.074 182.991 225.074 407.009C225.074 631.028 307.018 812.636 408.084 812.636" stroke="url(#paint37_linear_143_4285)" stroke-width="2" stroke-miterlimit="10"/>
<path d="M408.102 1.38306C298.241 1.38306 209.18 182.991 209.18 407.009C209.18 631.028 298.241 812.636 408.102 812.636" stroke="url(#paint38_linear_143_4285)" stroke-width="2" stroke-miterlimit="10"/>
<path d="M408.101 1.38306C289.445 1.38306 193.266 182.991 193.266 407.009C193.266 631.028 289.445 812.636 408.101 812.636" stroke="url(#paint39_linear_143_4285)" stroke-width="2" stroke-miterlimit="10"/>
<path d="M408.12 1.38306C280.686 1.38306 177.371 182.991 177.371 407.009C177.371 631.028 280.686 812.636 408.12 812.636" stroke="url(#paint40_linear_143_4285)" stroke-width="2" stroke-miterlimit="10"/>
<path d="M408.119 1.38306C271.89 1.38306 161.457 182.991 161.457 407.009C161.457 631.028 271.89 812.636 408.119 812.636" stroke="url(#paint41_linear_143_4285)" stroke-width="2" stroke-miterlimit="10"/>
<path d="M408.122 1.38306C263.097 1.38306 145.547 182.991 145.547 407.009C145.547 631.028 263.115 812.636 408.122 812.636" stroke="url(#paint42_linear_143_4285)" stroke-width="2" stroke-miterlimit="10"/>
<path d="M408.139 1.38306C254.337 1.38306 129.633 182.991 129.633 407.009C129.633 631.028 254.319 812.636 408.139 812.636" stroke="url(#paint43_linear_143_4285)" stroke-width="2" stroke-miterlimit="10"/>
<path d="M408.138 1.38306C245.541 1.38306 113.719 182.991 113.719 407.009C113.719 631.028 245.522 812.636 408.138 812.636" stroke="url(#paint44_linear_143_4285)" stroke-width="2" stroke-miterlimit="10"/>
<path d="M408.157 1.38306C236.764 1.38306 97.8242 182.991 97.8242 407.009C97.8242 631.028 236.764 812.636 408.157 812.636" stroke="url(#paint45_linear_143_4285)" stroke-width="2" stroke-miterlimit="10"/>
<path d="M408.155 1.38306C227.986 1.38306 81.9102 182.991 81.9102 407.009C81.9102 631.028 227.967 812.636 408.155 812.636" stroke="url(#paint46_linear_143_4285)" stroke-width="2" stroke-miterlimit="10"/>
<path d="M408.158 1.38306C219.193 1.38306 66 182.991 66 407.009C66 631.028 219.193 812.636 408.158 812.636" stroke="url(#paint47_linear_143_4285)" stroke-width="2" stroke-miterlimit="10"/>
<path d="M408.177 1.38306C210.416 1.38306 50.1055 182.991 50.1055 407.009C50.1055 631.028 210.416 812.636 408.177 812.636" stroke="url(#paint48_linear_143_4285)" stroke-width="2" stroke-miterlimit="10"/>
<path d="M408.176 1.38306C201.638 1.38306 34.1914 182.991 34.1914 407.009C34.1914 631.028 201.638 812.636 408.176 812.636" stroke="url(#paint49_linear_143_4285)" stroke-width="2" stroke-miterlimit="10"/>
<path d="M408.194 1.38306C192.861 1.38306 18.2969 182.991 18.2969 407.009C18.2969 631.028 192.861 812.636 408.194 812.636" stroke="url(#paint50_linear_143_4285)" stroke-width="2" stroke-miterlimit="10"/>
<path d="M408.193 1.38306C184.065 1.38306 2.38281 182.991 2.38281 407.009C2.38281 631.028 184.065 812.636 408.193 812.636" stroke="url(#paint51_linear_143_4285)" stroke-width="2" stroke-miterlimit="10"/>
</g>
</g>
<defs>
<linearGradient id="paint0_linear_143_4285" x1="281.219" y1="347.801" x2="794.752" y2="534.701" gradientUnits="userSpaceOnUse">
<stop stop-color="#708E77"/>
<stop offset="0.28" stop-color="#4D725C"/>
<stop offset="0.56" stop-color="#315C47"/>
<stop offset="0.81" stop-color="#214E3A"/>
<stop offset="1" stop-color="#1B4A36"/>
</linearGradient>
<linearGradient id="paint1_linear_143_4285" x1="280.925" y1="348.668" x2="781.274" y2="530.773" gradientUnits="userSpaceOnUse">
<stop stop-color="#708E77"/>
<stop offset="0.28" stop-color="#4D725C"/>
<stop offset="0.56" stop-color="#315C47"/>
<stop offset="0.81" stop-color="#214E3A"/>
<stop offset="1" stop-color="#1B4A36"/>
</linearGradient>
<linearGradient id="paint2_linear_143_4285" x1="280.63" y1="349.497" x2="767.869" y2="526.827" gradientUnits="userSpaceOnUse">
<stop stop-color="#708E77"/>
<stop offset="0.28" stop-color="#4D725C"/>
<stop offset="0.56" stop-color="#315C47"/>
<stop offset="0.81" stop-color="#214E3A"/>
<stop offset="1" stop-color="#1B4A36"/>
</linearGradient>
<linearGradient id="paint3_linear_143_4285" x1="280.336" y1="350.29" x2="754.538" y2="522.881" gradientUnits="userSpaceOnUse">
<stop stop-color="#708E77"/>
<stop offset="0.28" stop-color="#4D725C"/>
<stop offset="0.56" stop-color="#315C47"/>
<stop offset="0.81" stop-color="#214E3A"/>
<stop offset="1" stop-color="#1B4A36"/>
</linearGradient>
<linearGradient id="paint4_linear_143_4285" x1="280.078" y1="351.046" x2="741.317" y2="518.936" gradientUnits="userSpaceOnUse">
<stop stop-color="#708E77"/>
<stop offset="0.28" stop-color="#4D725C"/>
<stop offset="0.56" stop-color="#315C47"/>
<stop offset="0.81" stop-color="#214E3A"/>
<stop offset="1" stop-color="#1B4A36"/>
</linearGradient>
<linearGradient id="paint5_linear_143_4285" x1="279.82" y1="351.784" x2="728.207" y2="514.989" gradientUnits="userSpaceOnUse">
<stop stop-color="#708E77"/>
<stop offset="0.28" stop-color="#4D725C"/>
<stop offset="0.56" stop-color="#315C47"/>
<stop offset="0.81" stop-color="#214E3A"/>
<stop offset="1" stop-color="#1B4A36"/>
</linearGradient>
<linearGradient id="paint6_linear_143_4285" x1="279.563" y1="352.503" x2="715.19" y2="511.044" gradientUnits="userSpaceOnUse">
<stop stop-color="#708E77"/>
<stop offset="0.28" stop-color="#4D725C"/>
<stop offset="0.56" stop-color="#315C47"/>
<stop offset="0.81" stop-color="#214E3A"/>
<stop offset="1" stop-color="#1B4A36"/>
</linearGradient>
<linearGradient id="paint7_linear_143_4285" x1="279.323" y1="353.167" x2="702.319" y2="507.116" gradientUnits="userSpaceOnUse">
<stop stop-color="#708E77"/>
<stop offset="0.28" stop-color="#4D725C"/>
<stop offset="0.56" stop-color="#315C47"/>
<stop offset="0.81" stop-color="#214E3A"/>
<stop offset="1" stop-color="#1B4A36"/>
</linearGradient>
<linearGradient id="paint8_linear_143_4285" x1="279.099" y1="353.812" x2="689.594" y2="503.207" gradientUnits="userSpaceOnUse">
<stop stop-color="#708E77"/>
<stop offset="0.28" stop-color="#4D725C"/>
<stop offset="0.56" stop-color="#315C47"/>
<stop offset="0.81" stop-color="#214E3A"/>
<stop offset="1" stop-color="#1B4A36"/>
</linearGradient>
<linearGradient id="paint9_linear_143_4285" x1="278.878" y1="354.402" x2="677.036" y2="499.335" gradientUnits="userSpaceOnUse">
<stop stop-color="#708E77"/>
<stop offset="0.28" stop-color="#4D725C"/>
<stop offset="0.56" stop-color="#315C47"/>
<stop offset="0.81" stop-color="#214E3A"/>
<stop offset="1" stop-color="#1B4A36"/>
</linearGradient>
<linearGradient id="paint10_linear_143_4285" x1="278.694" y1="354.974" x2="664.682" y2="495.462" gradientUnits="userSpaceOnUse">
<stop stop-color="#708E77"/>
<stop offset="0.28" stop-color="#4D725C"/>
<stop offset="0.56" stop-color="#315C47"/>
<stop offset="0.81" stop-color="#214E3A"/>
<stop offset="1" stop-color="#1B4A36"/>
</linearGradient>
<linearGradient id="paint11_linear_143_4285" x1="278.492" y1="355.527" x2="652.532" y2="491.664" gradientUnits="userSpaceOnUse">
<stop stop-color="#708E77"/>
<stop offset="0.28" stop-color="#4D725C"/>
<stop offset="0.56" stop-color="#315C47"/>
<stop offset="0.81" stop-color="#214E3A"/>
<stop offset="1" stop-color="#1B4A36"/>
</linearGradient>
<linearGradient id="paint12_linear_143_4285" x1="278.326" y1="356.025" x2="640.638" y2="487.902" gradientUnits="userSpaceOnUse">
<stop stop-color="#708E77"/>
<stop offset="0.28" stop-color="#4D725C"/>
<stop offset="0.56" stop-color="#315C47"/>
<stop offset="0.81" stop-color="#214E3A"/>
<stop offset="1" stop-color="#1B4A36"/>
</linearGradient>
<linearGradient id="paint13_linear_143_4285" x1="278.161" y1="356.486" x2="629.023" y2="484.196" gradientUnits="userSpaceOnUse">
<stop stop-color="#708E77"/>
<stop offset="0.28" stop-color="#4D725C"/>
<stop offset="0.56" stop-color="#315C47"/>
<stop offset="0.81" stop-color="#214E3A"/>
<stop offset="1" stop-color="#1B4A36"/>
</linearGradient>
<linearGradient id="paint14_linear_143_4285" x1="278.014" y1="356.928" x2="617.756" y2="480.582" gradientUnits="userSpaceOnUse">
<stop stop-color="#708E77"/>
<stop offset="0.28" stop-color="#4D725C"/>
<stop offset="0.56" stop-color="#315C47"/>
<stop offset="0.81" stop-color="#214E3A"/>
<stop offset="1" stop-color="#1B4A36"/>
</linearGradient>
<linearGradient id="paint15_linear_143_4285" x1="277.866" y1="357.334" x2="606.877" y2="477.078" gradientUnits="userSpaceOnUse">
<stop stop-color="#708E77"/>
<stop offset="0.28" stop-color="#4D725C"/>
<stop offset="0.56" stop-color="#315C47"/>
<stop offset="0.81" stop-color="#214E3A"/>
<stop offset="1" stop-color="#1B4A36"/>
</linearGradient>
<linearGradient id="paint16_linear_143_4285" x1="277.734" y1="357.684" x2="596.438" y2="473.686" gradientUnits="userSpaceOnUse">
<stop stop-color="#708E77"/>
<stop offset="0.28" stop-color="#4D725C"/>
<stop offset="0.56" stop-color="#315C47"/>
<stop offset="0.81" stop-color="#214E3A"/>
<stop offset="1" stop-color="#1B4A36"/>
</linearGradient>
<linearGradient id="paint17_linear_143_4285" x1="277.624" y1="358.016" x2="586.554" y2="470.459" gradientUnits="userSpaceOnUse">
<stop stop-color="#708E77"/>
<stop offset="0.28" stop-color="#4D725C"/>
<stop offset="0.56" stop-color="#315C47"/>
<stop offset="0.81" stop-color="#214E3A"/>
<stop offset="1" stop-color="#1B4A36"/>
</linearGradient>
<linearGradient id="paint18_linear_143_4285" x1="277.532" y1="358.311" x2="577.281" y2="467.416" gradientUnits="userSpaceOnUse">
<stop stop-color="#708E77"/>
<stop offset="0.28" stop-color="#4D725C"/>
<stop offset="0.56" stop-color="#315C47"/>
<stop offset="0.81" stop-color="#214E3A"/>
<stop offset="1" stop-color="#1B4A36"/>
</linearGradient>
<linearGradient id="paint19_linear_143_4285" x1="277.44" y1="358.569" x2="568.743" y2="464.595" gradientUnits="userSpaceOnUse">
<stop stop-color="#708E77"/>
<stop offset="0.28" stop-color="#4D725C"/>
<stop offset="0.56" stop-color="#315C47"/>
<stop offset="0.81" stop-color="#214E3A"/>
<stop offset="1" stop-color="#1B4A36"/>
</linearGradient>
<linearGradient id="paint20_linear_143_4285" x1="277.368" y1="358.791" x2="561.055" y2="462.05" gradientUnits="userSpaceOnUse">
<stop stop-color="#708E77"/>
<stop offset="0.28" stop-color="#4D725C"/>
<stop offset="0.56" stop-color="#315C47"/>
<stop offset="0.81" stop-color="#214E3A"/>
<stop offset="1" stop-color="#1B4A36"/>
</linearGradient>
<linearGradient id="paint21_linear_143_4285" x1="277.312" y1="358.975" x2="554.343" y2="459.819" gradientUnits="userSpaceOnUse">
<stop stop-color="#708E77"/>
<stop offset="0.28" stop-color="#4D725C"/>
<stop offset="0.56" stop-color="#315C47"/>
<stop offset="0.81" stop-color="#214E3A"/>
<stop offset="1" stop-color="#1B4A36"/>
</linearGradient>
<linearGradient id="paint22_linear_143_4285" x1="277.275" y1="359.123" x2="548.738" y2="457.938" gradientUnits="userSpaceOnUse">
<stop stop-color="#708E77"/>
<stop offset="0.28" stop-color="#4D725C"/>
<stop offset="0.56" stop-color="#315C47"/>
<stop offset="0.81" stop-color="#214E3A"/>
<stop offset="1" stop-color="#1B4A36"/>
</linearGradient>
<linearGradient id="paint23_linear_143_4285" x1="277.24" y1="359.233" x2="544.387" y2="456.482" gradientUnits="userSpaceOnUse">
<stop stop-color="#708E77"/>
<stop offset="0.28" stop-color="#4D725C"/>
<stop offset="0.56" stop-color="#315C47"/>
<stop offset="0.81" stop-color="#214E3A"/>
<stop offset="1" stop-color="#1B4A36"/>
</linearGradient>
<linearGradient id="paint24_linear_143_4285" x1="277.221" y1="359.307" x2="541.4" y2="455.468" gradientUnits="userSpaceOnUse">
<stop stop-color="#708E77"/>
<stop offset="0.28" stop-color="#4D725C"/>
<stop offset="0.56" stop-color="#315C47"/>
<stop offset="0.81" stop-color="#214E3A"/>
<stop offset="1" stop-color="#1B4A36"/>
</linearGradient>
<linearGradient id="paint25_linear_143_4285" x1="277.2" y1="359.344" x2="539.867" y2="454.952" gradientUnits="userSpaceOnUse">
<stop stop-color="#708E77"/>
<stop offset="0.28" stop-color="#4D725C"/>
<stop offset="0.56" stop-color="#315C47"/>
<stop offset="0.81" stop-color="#214E3A"/>
<stop offset="1" stop-color="#1B4A36"/>
</linearGradient>
<linearGradient id="paint26_linear_143_4285" x1="276.132" y1="359.049" x2="538.798" y2="454.656" gradientUnits="userSpaceOnUse">
<stop stop-color="#708E77"/>
<stop offset="0.28" stop-color="#4D725C"/>
<stop offset="0.56" stop-color="#315C47"/>
<stop offset="0.81" stop-color="#214E3A"/>
<stop offset="1" stop-color="#1B4A36"/>
</linearGradient>
<linearGradient id="paint27_linear_143_4285" x1="274.6" y1="358.533" x2="538.797" y2="454.693" gradientUnits="userSpaceOnUse">
<stop stop-color="#708E77"/>
<stop offset="0.28" stop-color="#4D725C"/>
<stop offset="0.56" stop-color="#315C47"/>
<stop offset="0.81" stop-color="#214E3A"/>
<stop offset="1" stop-color="#1B4A36"/>
</linearGradient>
<linearGradient id="paint28_linear_143_4285" x1="271.613" y1="357.537" x2="538.779" y2="454.767" gradientUnits="userSpaceOnUse">
<stop stop-color="#708E77"/>
<stop offset="0.28" stop-color="#4D725C"/>
<stop offset="0.56" stop-color="#315C47"/>
<stop offset="0.81" stop-color="#214E3A"/>
<stop offset="1" stop-color="#1B4A36"/>
</linearGradient>
<linearGradient id="paint29_linear_143_4285" x1="267.264" y1="356.08" x2="538.745" y2="454.878" gradientUnits="userSpaceOnUse">
<stop stop-color="#708E77"/>
<stop offset="0.28" stop-color="#4D725C"/>
<stop offset="0.56" stop-color="#315C47"/>
<stop offset="0.81" stop-color="#214E3A"/>
<stop offset="1" stop-color="#1B4A36"/>
</linearGradient>
<linearGradient id="paint30_linear_143_4285" x1="261.659" y1="354.199" x2="538.69" y2="455.025" gradientUnits="userSpaceOnUse">
<stop stop-color="#708E77"/>
<stop offset="0.28" stop-color="#4D725C"/>
<stop offset="0.56" stop-color="#315C47"/>
<stop offset="0.81" stop-color="#214E3A"/>
<stop offset="1" stop-color="#1B4A36"/>
</linearGradient>
<linearGradient id="paint31_linear_143_4285" x1="254.946" y1="351.968" x2="538.633" y2="455.21" gradientUnits="userSpaceOnUse">
<stop stop-color="#708E77"/>
<stop offset="0.28" stop-color="#4D725C"/>
<stop offset="0.56" stop-color="#315C47"/>
<stop offset="0.81" stop-color="#214E3A"/>
<stop offset="1" stop-color="#1B4A36"/>
</linearGradient>
<linearGradient id="paint32_linear_143_4285" x1="247.256" y1="349.405" x2="538.559" y2="455.431" gradientUnits="userSpaceOnUse">
<stop stop-color="#708E77"/>
<stop offset="0.28" stop-color="#4D725C"/>
<stop offset="0.56" stop-color="#315C47"/>
<stop offset="0.81" stop-color="#214E3A"/>
<stop offset="1" stop-color="#1B4A36"/>
</linearGradient>
<linearGradient id="paint33_linear_143_4285" x1="238.718" y1="346.584" x2="538.466" y2="455.689" gradientUnits="userSpaceOnUse">
<stop stop-color="#708E77"/>
<stop offset="0.28" stop-color="#4D725C"/>
<stop offset="0.56" stop-color="#315C47"/>
<stop offset="0.81" stop-color="#214E3A"/>
<stop offset="1" stop-color="#1B4A36"/>
</linearGradient>
<linearGradient id="paint34_linear_143_4285" x1="229.461" y1="343.541" x2="538.373" y2="455.984" gradientUnits="userSpaceOnUse">
<stop stop-color="#708E77"/>
<stop offset="0.28" stop-color="#4D725C"/>
<stop offset="0.56" stop-color="#315C47"/>
<stop offset="0.81" stop-color="#214E3A"/>
<stop offset="1" stop-color="#1B4A36"/>
</linearGradient>
<linearGradient id="paint35_linear_143_4285" x1="219.559" y1="340.315" x2="538.263" y2="456.316" gradientUnits="userSpaceOnUse">
<stop stop-color="#708E77"/>
<stop offset="0.28" stop-color="#4D725C"/>
<stop offset="0.56" stop-color="#315C47"/>
<stop offset="0.81" stop-color="#214E3A"/>
<stop offset="1" stop-color="#1B4A36"/>
</linearGradient>
<linearGradient id="paint36_linear_143_4285" x1="209.144" y1="336.94" x2="538.137" y2="456.685" gradientUnits="userSpaceOnUse">
<stop stop-color="#708E77"/>
<stop offset="0.28" stop-color="#4D725C"/>
<stop offset="0.56" stop-color="#315C47"/>
<stop offset="0.81" stop-color="#214E3A"/>
<stop offset="1" stop-color="#1B4A36"/>
</linearGradient>
<linearGradient id="paint37_linear_143_4285" x1="198.264" y1="333.418" x2="538.006" y2="457.072" gradientUnits="userSpaceOnUse">
<stop stop-color="#708E77"/>
<stop offset="0.28" stop-color="#4D725C"/>
<stop offset="0.56" stop-color="#315C47"/>
<stop offset="0.81" stop-color="#214E3A"/>
<stop offset="1" stop-color="#1B4A36"/>
</linearGradient>
<linearGradient id="paint38_linear_143_4285" x1="186.979" y1="329.804" x2="537.859" y2="457.514" gradientUnits="userSpaceOnUse">
<stop stop-color="#708E77"/>
<stop offset="0.28" stop-color="#4D725C"/>
<stop offset="0.56" stop-color="#315C47"/>
<stop offset="0.81" stop-color="#214E3A"/>
<stop offset="1" stop-color="#1B4A36"/>
</linearGradient>
<linearGradient id="paint39_linear_143_4285" x1="175.38" y1="326.116" x2="537.692" y2="457.994" gradientUnits="userSpaceOnUse">
<stop stop-color="#708E77"/>
<stop offset="0.28" stop-color="#4D725C"/>
<stop offset="0.56" stop-color="#315C47"/>
<stop offset="0.81" stop-color="#214E3A"/>
<stop offset="1" stop-color="#1B4A36"/>
</linearGradient>
<linearGradient id="paint40_linear_143_4285" x1="163.468" y1="322.355" x2="537.508" y2="458.492" gradientUnits="userSpaceOnUse">
<stop stop-color="#708E77"/>
<stop offset="0.28" stop-color="#4D725C"/>
<stop offset="0.56" stop-color="#315C47"/>
<stop offset="0.81" stop-color="#214E3A"/>
<stop offset="1" stop-color="#1B4A36"/>
</linearGradient>
<linearGradient id="paint41_linear_143_4285" x1="151.334" y1="318.538" x2="537.322" y2="459.026" gradientUnits="userSpaceOnUse">
<stop stop-color="#708E77"/>
<stop offset="0.28" stop-color="#4D725C"/>
<stop offset="0.56" stop-color="#315C47"/>
<stop offset="0.81" stop-color="#214E3A"/>
<stop offset="1" stop-color="#1B4A36"/>
</linearGradient>
<linearGradient id="paint42_linear_143_4285" x1="138.964" y1="314.684" x2="537.122" y2="459.598" gradientUnits="userSpaceOnUse">
<stop stop-color="#708E77"/>
<stop offset="0.28" stop-color="#4D725C"/>
<stop offset="0.56" stop-color="#315C47"/>
<stop offset="0.81" stop-color="#214E3A"/>
<stop offset="1" stop-color="#1B4A36"/>
</linearGradient>
<linearGradient id="paint43_linear_143_4285" x1="126.406" y1="310.793" x2="536.9" y2="460.207" gradientUnits="userSpaceOnUse">
<stop stop-color="#708E77"/>
<stop offset="0.28" stop-color="#4D725C"/>
<stop offset="0.56" stop-color="#315C47"/>
<stop offset="0.81" stop-color="#214E3A"/>
<stop offset="1" stop-color="#1B4A36"/>
</linearGradient>
<linearGradient id="paint44_linear_143_4285" x1="113.682" y1="306.884" x2="536.678" y2="460.852" gradientUnits="userSpaceOnUse">
<stop stop-color="#708E77"/>
<stop offset="0.28" stop-color="#4D725C"/>
<stop offset="0.56" stop-color="#315C47"/>
<stop offset="0.81" stop-color="#214E3A"/>
<stop offset="1" stop-color="#1B4A36"/>
</linearGradient>
<linearGradient id="paint45_linear_143_4285" x1="100.811" y1="302.957" x2="536.438" y2="461.516" gradientUnits="userSpaceOnUse">
<stop stop-color="#708E77"/>
<stop offset="0.28" stop-color="#4D725C"/>
<stop offset="0.56" stop-color="#315C47"/>
<stop offset="0.81" stop-color="#214E3A"/>
<stop offset="1" stop-color="#1B4A36"/>
</linearGradient>
<linearGradient id="paint46_linear_143_4285" x1="87.8107" y1="299.011" x2="536.198" y2="462.216" gradientUnits="userSpaceOnUse">
<stop stop-color="#708E77"/>
<stop offset="0.28" stop-color="#4D725C"/>
<stop offset="0.56" stop-color="#315C47"/>
<stop offset="0.81" stop-color="#214E3A"/>
<stop offset="1" stop-color="#1B4A36"/>
</linearGradient>
<linearGradient id="paint47_linear_143_4285" x1="74.6849" y1="295.065" x2="535.942" y2="462.954" gradientUnits="userSpaceOnUse">
<stop stop-color="#708E77"/>
<stop offset="0.28" stop-color="#4D725C"/>
<stop offset="0.56" stop-color="#315C47"/>
<stop offset="0.81" stop-color="#214E3A"/>
<stop offset="1" stop-color="#1B4A36"/>
</linearGradient>
<linearGradient id="paint48_linear_143_4285" x1="61.464" y1="291.119" x2="535.666" y2="463.728" gradientUnits="userSpaceOnUse">
<stop stop-color="#708E77"/>
<stop offset="0.28" stop-color="#4D725C"/>
<stop offset="0.56" stop-color="#315C47"/>
<stop offset="0.81" stop-color="#214E3A"/>
<stop offset="1" stop-color="#1B4A36"/>
</linearGradient>
<linearGradient id="paint49_linear_143_4285" x1="48.1499" y1="287.173" x2="535.388" y2="464.521" gradientUnits="userSpaceOnUse">
<stop stop-color="#708E77"/>
<stop offset="0.28" stop-color="#4D725C"/>
<stop offset="0.56" stop-color="#315C47"/>
<stop offset="0.81" stop-color="#214E3A"/>
<stop offset="1" stop-color="#1B4A36"/>
</linearGradient>
<linearGradient id="paint50_linear_143_4285" x1="34.7447" y1="283.245" x2="535.093" y2="465.351" gradientUnits="userSpaceOnUse">
<stop stop-color="#708E77"/>
<stop offset="0.28" stop-color="#4D725C"/>
<stop offset="0.56" stop-color="#315C47"/>
<stop offset="0.81" stop-color="#214E3A"/>
<stop offset="1" stop-color="#1B4A36"/>
</linearGradient>
<linearGradient id="paint51_linear_143_4285" x1="21.2461" y1="279.299" x2="534.779" y2="466.218" gradientUnits="userSpaceOnUse">
<stop stop-color="#708E77"/>
<stop offset="0.28" stop-color="#4D725C"/>
<stop offset="0.56" stop-color="#315C47"/>
<stop offset="0.81" stop-color="#214E3A"/>
<stop offset="1" stop-color="#1B4A36"/>
</linearGradient>
<clipPath id="clip0_143_4285">
<rect width="651" height="336" fill="white"/>
</clipPath>
<clipPath id="clip1_143_4285">
<rect width="814" height="814" fill="white" transform="translate(1)"/>
</clipPath>
</defs>
</svg>
